<?xml version="1.0" encoding="UTF-8"?>
<svg width="340px" height="334px" viewBox="0 0 340 334" version="1.1" xmlns="http://www.w3.org/2000/svg" xmlns:xlink="http://www.w3.org/1999/xlink">
    <!-- Generator: Sketch 51.2 (57519) - http://www.bohemiancoding.com/sketch -->
    <title>Group 6</title>
    <desc>Created with Sketch.</desc>
    <defs>
        <polygon id="path-1" points="0 279 283.420899 279 283.420899 0.567238411 0 0.567238411"></polygon>
        <polygon id="path-3" points="0 0.156671087 37.9938052 0.156671087 37.9938052 19.7462687 0 19.7462687"></polygon>
        <polygon id="path-5" points="0.120491667 0.154363433 14.7301063 0.154363433 14.7301063 15.1119403 0.120491667 15.1119403"></polygon>
        <polygon id="path-7" points="0 0.12306 49.987013 0.12306 49.987013 33.1218138 0 33.1218138"></polygon>
        <polygon id="path-9" points="0.0551396985 0.0869275 29.9877226 0.0869275 29.9877226 34.075 0.0551396985 34.075"></polygon>
        <polygon id="path-11" points="0 57.9801833 47.8920603 57.9801833 47.8920603 0 0 0"></polygon>
        <polygon id="path-13" points="0 54.8791209 57.9145708 54.8791209 57.9145708 0.0458131868 0 0.0458131868"></polygon>
        <polygon id="path-15" points="0.7069 0.3342 29.427 0.3342 29.427 19.9162 0.7069 19.9162"></polygon>
        <polygon id="path-17" points="0.345784634 0.709 51.4483081 0.709 51.4483081 27.8709543 0.345784634 27.8709543"></polygon>
        <polygon id="path-19" points="0 0.3671 52.9995 0.3671 52.9995 22.3711 0 22.3711"></polygon>
    </defs>
    <g id="Page-1" stroke="none" stroke-width="1" fill="none" fill-rule="evenodd">
        <g id="Login" transform="translate(-18.000000, -176.000000)">
            <g id="Group-6" transform="translate(18.000000, 176.000000)">
                <g id="Group">
                    <g id="Group-43" opacity="0.143415179" fill="#4AB4F3">
                        <g id="Group-21">
                            <polygon id="Fill-1" points="53.4375256 31.1075522 45.503076 31.1075522 45.503076 23.1514617 41.3711767 23.1514617 41.3711767 31.1075522 33.4374791 31.1075522 33.4374791 35.2511137 41.3711767 35.2511137 41.3711767 43.2072042 45.503076 43.2072042 45.503076 35.2511137 53.4375256 35.2511137"></polygon>
                            <polygon id="Fill-3" points="96.9830814 250.584426 89.0493837 250.584426 89.0493837 242.628335 84.9174845 242.628335 84.9174845 250.584426 76.9830349 250.584426 76.9830349 254.727987 84.9174845 254.727987 84.9174845 262.684078 89.0493837 262.684078 89.0493837 254.727987 96.9830814 254.727987"></polygon>
                            <polygon id="Fill-5" points="23.3232364 163.497094 15.3895388 163.497094 15.3895388 155.541003 11.2576395 155.541003 11.2576395 163.497094 3.32318992 163.497094 3.32318992 167.640655 11.2576395 167.640655 11.2576395 175.596746 15.3895388 175.596746 15.3895388 167.640655 23.3232364 167.640655"></polygon>
                            <polygon id="Fill-7" points="45.7334698 121.258329 40.8556481 121.258329 40.8556481 116.367494 38.3148496 116.367494 38.3148496 121.258329 33.4370279 121.258329 33.4370279 123.806299 38.3148496 123.806299 38.3148496 128.697135 40.8556481 128.697135 40.8556481 123.806299 45.7334698 123.806299"></polygon>
                            <polygon id="Fill-9" points="29.470931 235.18953 24.5938612 235.18953 24.5938612 230.298695 22.0530628 230.298695 22.0530628 235.18953 17.1752411 235.18953 17.1752411 237.7375 22.0530628 237.7375 22.0530628 242.628335 24.5938612 242.628335 24.5938612 237.7375 29.470931 237.7375"></polygon>
                            <polygon id="Fill-11" points="55.7329667 280.24094 50.8558969 280.24094 50.8558969 275.350104 48.3150984 275.350104 48.3150984 280.24094 43.4365248 280.24094 43.4365248 282.78891 48.3150984 282.78891 48.3150984 287.679745 50.8558969 287.679745 50.8558969 282.78891 55.7329667 282.78891"></polygon>
                            <polygon id="Fill-13" points="15.6191806 5.06856729 10.7421109 5.06856729 10.7421109 0.177732019 8.2013124 0.177732019 8.2013124 5.06856729 3.32273876 5.06856729 3.32273876 7.61578306 8.2013124 7.61578306 8.2013124 12.5073724 10.7421109 12.5073724 10.7421109 7.61578306 15.6191806 7.61578306"></polygon>
                            <polygon id="Fill-15" points="37.2164938 62.9610963 22.4529434 62.9610963 22.4529434 48.1566299 14.7636256 48.1566299 14.7636256 62.9610963 7.51937985e-05 62.9610963 7.51937985e-05 70.6721172 14.7636256 70.6721172 14.7636256 85.4765835 22.4529434 85.4765835 22.4529434 70.6721172 37.2164938 70.6721172"></polygon>
                            <polygon id="Fill-17" points="40.9588891 302.484287 26.1953388 302.484287 26.1953388 287.67982 18.5060209 287.67982 18.5060209 302.484287 3.74247054 302.484287 3.74247054 310.196061 18.5060209 310.196061 18.5060209 324.999774 26.1953388 324.999774 26.1953388 310.196061 40.9588891 310.196061"></polygon>
                            <polygon id="Fill-19" points="67.9002256 207.78268 53.1366752 207.78268 53.1366752 192.978213 45.4473574 192.978213 45.4473574 207.78268 30.683807 207.78268 30.683807 215.494455 45.4473574 215.494455 45.4473574 230.298167 53.1366752 230.298167 53.1366752 215.494455 67.9002256 215.494455"></polygon>
                        </g>
                        <g id="Group-42" transform="translate(242.000000, 0.000000)">
                            <polygon id="Fill-22" points="44.3002215 31.1075522 52.2540523 31.1075522 52.2540523 23.1514617 56.3971908 23.1514617 56.3971908 31.1075522 64.3502677 31.1075522 64.3502677 35.2511137 56.3971908 35.2511137 56.3971908 43.2072042 52.2540523 43.2072042 52.2540523 35.2511137 44.3002215 35.2511137"></polygon>
                            <polygon id="Fill-24" points="0.643407692 250.584426 8.59723846 250.584426 8.59723846 242.628335 12.7396231 242.628335 12.7396231 250.584426 20.6942077 250.584426 20.6942077 254.727987 12.7396231 254.727987 12.7396231 262.684078 8.59723846 262.684078 8.59723846 254.727987 0.643407692 254.727987"></polygon>
                            <polygon id="Fill-26" points="74.4901015 163.497094 82.4446862 163.497094 82.4446862 155.541003 86.5870708 155.541003 86.5870708 163.497094 94.5409015 163.497094 94.5409015 167.640655 86.5870708 167.640655 86.5870708 175.596746 82.4446862 175.596746 82.4446862 167.640655 74.4901015 167.640655"></polygon>
                            <polygon id="Fill-28" points="52.0234508 121.258329 56.9136508 121.258329 56.9136508 116.367494 59.4601431 116.367494 59.4601431 121.258329 64.3503431 121.258329 64.3503431 123.806299 59.4601431 123.806299 59.4601431 128.697135 56.9136508 128.697135 56.9136508 123.806299 52.0234508 123.806299"></polygon>
                            <polygon id="Fill-30" points="68.3268815 235.18953 73.2163277 235.18953 73.2163277 230.298695 75.7643277 230.298695 75.7643277 235.18953 80.6545277 235.18953 80.6545277 237.7375 75.7643277 237.7375 75.7643277 242.628335 73.2163277 242.628335 73.2163277 237.7375 68.3268815 237.7375"></polygon>
                            <polygon id="Fill-32" points="41.9982015 280.24094 46.8884015 280.24094 46.8884015 275.350104 49.4348938 275.350104 49.4348938 280.24094 54.3258477 280.24094 54.3258477 282.78891 49.4348938 282.78891 49.4348938 287.679745 46.8884015 287.679745 46.8884015 282.78891 41.9982015 282.78891"></polygon>
                            <polygon id="Fill-34" points="82.2140846 5.06856729 87.1035308 5.06856729 87.1035308 0.177732019 89.6507769 0.177732019 89.6507769 5.06856729 94.5409769 5.06856729 94.5409769 7.61578306 89.6507769 7.61578306 89.6507769 12.5073724 87.1035308 12.5073724 87.1035308 7.61578306 82.2140846 7.61578306"></polygon>
                            <polygon id="Fill-36" points="60.5624169 62.9610963 75.3634323 62.9610963 75.3634323 48.1566299 83.0715092 48.1566299 83.0715092 62.9610963 97.8732785 62.9610963 97.8732785 70.6721172 83.0715092 70.6721172 83.0715092 85.4765835 75.3634323 85.4765835 75.3634323 70.6721172 60.5624169 70.6721172"></polygon>
                            <polygon id="Fill-38" points="56.8100723 302.484287 71.6118415 302.484287 71.6118415 287.67982 79.3199185 287.67982 79.3199185 302.484287 94.1209338 302.484287 94.1209338 310.196061 79.3199185 310.196061 79.3199185 324.999774 71.6118415 324.999774 71.6118415 310.196061 56.8100723 310.196061"></polygon>
                            <polygon id="Fill-40" points="29.8004431 207.78268 44.6014585 207.78268 44.6014585 192.978213 52.3095354 192.978213 52.3095354 207.78268 67.1113046 207.78268 67.1113046 215.494455 52.3095354 215.494455 52.3095354 230.298167 44.6014585 230.298167 44.6014585 215.494455 29.8004431 215.494455"></polygon>
                        </g>
                    </g>
                    <g id="Group-273" transform="translate(22.000000, 23.000000)">
                        <g id="Group-232" transform="translate(0.000000, 5.000000)">
                            <g id="Group-199" transform="translate(16.026059, 7.009934)" fill="#61BEF5">
                                <path d="M253.24724,145.616013 L250.63481,145.249248 C250.483097,146.707069 250.183371,148.142718 249.934524,149.585758 L252.533078,150.044907 C252.787475,148.57138 253.090902,147.105244 253.24724,145.616013" id="Fill-1"></path>
                                <path d="M254.104513,137.615457 L251.473582,137.414059 C251.347771,138.872804 251.295041,140.339864 251.074872,141.789371 L253.697478,142.083152 C253.920422,140.603159 253.975927,139.105612 254.104513,137.615457" id="Fill-3"></path>
                                <polygon id="Fill-5" points="254.475841 129.604923 251.837509 129.567046 251.726499 133.961758 254.362056 134.090172"></polygon>
                                <path d="M247.601838,169.08601 L245.106894,168.228685 L244.401982,170.310099 C244.153135,170.998361 243.869135,171.674613 243.605487,172.357331 L246.068053,173.302421 C246.338177,172.605844 246.627728,171.914811 246.8812,171.210844 L247.601838,169.08601 Z" id="Fill-7"></path>
                                <polygon id="Fill-9" points="249.981425 161.397989 247.436526 160.701413 246.225595 164.925215 248.744592 165.712327"></polygon>
                                <polygon id="Fill-11" points="251.883115 153.604928 249.298438 153.070948 248.309526 157.352951 250.872001 157.977468"></polygon>
                                <path d="M237.589497,191.053842 L235.302696,189.738292 C234.566331,191.004878 233.866969,192.293636 233.047347,193.510335 L235.286044,194.905335 C236.121393,193.662769 236.837406,192.347219 237.589497,191.053842" id="Fill-13"></path>
                                <polygon id="Fill-15" points="241.399167 183.963084 239.032809 182.795349 237.027233 186.706892 239.350112 187.957773"></polygon>
                                <path d="M244.738989,176.668897 L242.304175,175.653596 C241.750976,177.009795 241.108969,178.328116 240.516917,179.667685 L242.912878,180.768904 C243.519732,179.401619 244.173764,178.053735 244.738989,176.668897" id="Fill-17"></path>
                                <path d="M223.59135,210.72833 L221.595024,209.006291 C220.621838,210.101966 219.706008,211.249377 218.668992,212.28685 L220.604262,214.079102 C221.66163,213.018532 222.597812,211.848026 223.59135,210.72833" id="Fill-19"></path>
                                <polygon id="Fill-21" points="228.677448 204.487876 226.576588 202.894251 223.856848 206.35034 225.901278 208.016025"></polygon>
                                <path d="M233.330885,197.951516 L231.132891,196.492771 C230.358598,197.738109 229.453868,198.894758 228.62037,200.099447 L230.765634,201.634871 C231.615784,200.404314 232.53994,199.222722 233.330885,197.951516" id="Fill-23"></path>
                                <path d="M206.132195,227.417889 L204.495726,225.351256 C203.329199,226.238144 202.220026,227.202634 201.005394,228.025776 L202.567857,230.149687 C203.807466,229.308068 204.940691,228.323253 206.132195,227.417889" id="Fill-25"></path>
                                <polygon id="Fill-27" points="212.306004 222.24752 210.542799 220.287129 207.216206 223.164894 208.909105 225.186258"></polygon>
                                <path d="M218.103119,216.698099 L216.220579,214.852265 C215.232592,215.936854 214.121569,216.898573 213.074377,217.924036 L214.891236,219.835463 C215.961556,218.787827 217.093855,217.804861 218.103119,216.698099" id="Fill-29"></path>
                                <path d="M185.835539,240.521281 L184.620907,238.183039 C183.308216,238.836195 182.025128,239.550324 180.689311,240.154516 L181.81976,242.53433 C183.18518,241.918128 184.496021,241.189218 185.835539,240.521281" id="Fill-31"></path>
                                <polygon id="Fill-33" points="192.878461 236.61214 191.516741 234.355196 187.701706 236.544699 188.982943 238.848759"></polygon>
                                <path d="M199.616014,232.246436 L198.114607,230.079105 C196.936979,230.95583 195.675167,231.705989 194.446659,232.506036 L195.87036,234.725102 C197.125695,233.907503 198.413408,233.139791 199.616014,232.246436" id="Fill-35"></path>
                                <polygon id="Fill-37" points="163.41767 249.542312 162.670205 247.015606 158.437032 248.213828 159.09384 250.765477"></polygon>
                                <polygon id="Fill-39" points="171.07938 247.04868 170.1728 244.574633 166.004383 245.982567 166.822155 248.488024"></polygon>
                                <path d="M178.518885,244.02541 L177.456891,241.613261 C176.13125,242.243321 174.763054,242.773605 173.396709,243.304814 L174.373595,245.752993 C175.767693,245.20885 177.164565,244.667479 178.518885,244.02541" id="Fill-41"></path>
                                <polygon id="Fill-43" points="139.689887 254.146181 139.437339 251.523396 135.048753 251.855979 135.208792 254.486155"></polygon>
                                <path d="M147.681295,253.118593 L147.263158,250.517056 C145.821881,250.795132 144.356552,250.910613 142.9051,251.117553 L143.230728,253.732023 C144.713634,253.522311 146.209491,253.402212 147.681295,253.118593" id="Fill-45"></path>
                                <path d="M155.563544,251.579474 L154.980743,249.009348 C153.553342,249.34655 152.125016,249.679132 150.675414,249.907321 L151.165707,252.496848 C152.646762,252.262192 154.105616,251.923142 155.563544,251.579474" id="Fill-47"></path>
                                <path d="M115.518526,254.181379 L115.761823,251.556747 C114.295569,251.483764 112.847816,251.220469 111.390813,251.059721 L111.055008,253.673267 C112.543464,253.837711 114.021745,254.104701 115.518526,254.181379" id="Fill-49"></path>
                                <path d="M123.561462,254.654109 L123.639169,252.019314 C122.172915,251.986056 120.70481,251.963884 119.244107,251.821612 L119.073892,254.450864 C120.566048,254.594983 122.063755,254.619927 123.561462,254.654109" id="Fill-51"></path>
                                <path d="M131.590891,254.6433 L131.504859,252.009429 C130.037679,252.04084 128.571425,252.098118 127.105171,252.10828 L127.099621,254.742151 C128.597328,254.732913 130.094109,254.675634 131.590891,254.6433" id="Fill-53"></path>
                                <polygon id="Fill-55" points="91.7749238 249.667677 92.5122137 247.1382 90.3956274 246.537703 88.3114189 245.835584 87.4843961 248.33827 89.6139336 249.054246"></polygon>
                                <path d="M99.5789107,251.66964 L100.153386,249.097667 C98.7269107,248.759541 97.2902593,248.458369 95.8711844,248.09068 L95.2051257,250.640481 C96.6547283,251.016485 98.1219075,251.324124 99.5789107,251.66964" id="Fill-57"></path>
                                <polygon id="Fill-59" points="107.465137 253.188897 107.874949 250.586437 103.543717 249.813182 103.041398 252.399937"></polygon>
                                <path d="M69.3235674,240.730623 L70.5298736,238.387762 C69.2264339,237.717054 67.9072678,237.07406 66.6500821,236.316511 L65.3614436,238.615951 C66.6454567,239.388282 67.9914502,240.046981 69.3235674,240.730623" id="Fill-61"></path>
                                <polygon id="Fill-63" points="76.5982228 244.1905 77.6528156 241.77558 73.6435127 239.965775 72.5038124 242.341894"></polygon>
                                <path d="M84.052159,247.177648 L84.9513381,244.699906 C83.5729668,244.200108 82.2186476,243.635641 80.8513772,243.107204 L79.8643153,245.550764 C81.2611883,246.091211 82.6451101,246.667688 84.052159,247.177648" id="Fill-65"></path>
                                <path d="M48.9789915,227.702155 L50.6080599,225.629055 C49.4637342,224.712605 48.2750046,223.849737 47.1871088,222.864923 L45.4868091,224.87982 C46.5978319,225.884035 47.8106137,226.766304 48.9789915,227.702155" id="Fill-67"></path>
                                <polygon id="Fill-69" points="55.4627023 232.479152 56.9567088 230.307202 53.3701681 227.761096 51.8003049 229.878539"></polygon>
                                <path d="M62.2206072,236.812428 L63.5749264,234.550866 C62.2964638,233.832117 61.0929329,232.98865 59.8486984,232.214472 L58.4148221,234.427071 C59.685884,235.217879 60.9143922,236.077975 62.2206072,236.812428" id="Fill-71"></path>
                                <path d="M31.4598919,211.075695 L33.449742,209.34534 C32.5080091,208.223797 31.4885694,207.165075 30.609742,205.98995 L28.5597616,207.649168 C29.4580156,208.84739 30.4968821,209.930132 31.4598919,211.075695" id="Fill-73"></path>
                                <polygon id="Fill-75" points="36.9245329 216.988647 38.8015231 215.13727 35.7654059 211.956485 33.8236599 213.740422"></polygon>
                                <path d="M42.7482906,222.510907 L44.5050202,220.544973 C43.3727205,219.611894 42.3616065,218.545781 41.2848117,217.551728 L39.4596261,219.453917 C40.5586228,220.470142 41.5928638,221.557503 42.7482906,222.510907" id="Fill-77"></path>
                                <path d="M17.3898658,191.451278 L19.6711166,190.127414 C18.9560287,188.849742 18.1734098,187.607175 17.5138267,186.299017 L15.1863218,187.541583 C15.8607062,188.877457 16.6590515,190.145891 17.3898658,191.451278" id="Fill-79"></path>
                                <polygon id="Fill-81" points="21.6367296 198.289827 23.8300977 196.824615 21.4554137 193.124631 19.2111661 194.512241"></polygon>
                                <path d="M26.321342,204.804569 L28.4175765,203.204476 C27.4841694,202.072771 26.6784235,200.84591 25.8171726,199.660622 L23.6654332,201.185884 C24.5451857,202.397039 25.3694332,203.64792 26.321342,204.804569" id="Fill-83"></path>
                                <path d="M7.29574723,169.5204 L9.78791661,168.654761 C9.32352573,167.265304 8.83508274,165.883238 8.39011857,164.488238 L5.86927166,165.265188 C6.32256156,166.690675 6.82118046,168.10138 7.29574723,169.5204" id="Fill-85"></path>
                                <polygon id="Fill-87" points="10.1590593 177.042868 12.5901733 176.019252 10.9768313 171.931256 8.51056417 172.86803"></polygon>
                                <path d="M13.5345889,184.320796 L15.8963218,183.14567 C15.2006606,181.855064 14.615084,180.510875 14.0119309,179.176849 L11.6094945,180.266981 C12.2265238,181.630571 12.8250515,183.002475 13.5345889,184.320796" id="Fill-89"></path>
                                <polygon id="Fill-91" points="1.5608899 146.071189 4.17239479 145.695186 3.61827101 141.33558 0.994740065 141.619199"></polygon>
                                <path d="M2.95804039,153.996452 L5.53994267,153.455081 C5.2198645,152.025899 5.00802085,150.574545 4.73512182,149.1352 L2.135643,149.585111 C2.41316743,151.054942 2.63056156,152.536783 2.95804039,153.996452" id="Fill-93"></path>
                                <polygon id="Fill-95" points="4.879157 161.784617 7.42128078 161.079726 6.81997785 158.966902 6.32043388 156.827286 3.75425798 157.440716 4.26490293 159.6256"></polygon>
                                <path d="M0.375213029,121.961524 L3.01169511,122.079776 C3.05054853,120.615488 3.21428795,119.157667 3.30957134,117.69615 L0.679564821,117.48459 C0.58243127,118.977518 0.415916612,120.465825 0.375213029,121.961524" id="Fill-97"></path>
                                <polygon id="Fill-99" points="0.284462541 130.006794 2.92279479 129.961526 2.8672899 127.763708 2.92371987 125.566814 0.285387622 125.521546 0.228032573 127.763708"></polygon>
                                <path d="M0.676049511,138.016404 L3.30605603,137.806692 C3.2126228,136.344251 3.04518306,134.887354 3.01002997,133.422142 L0.374472964,133.53947 C0.41055114,135.035169 0.579841042,136.5244 0.676049511,138.016404" id="Fill-101"></path>
                                <path d="M3.76434137,98.0616636 L6.32959218,98.6760179 C6.49888208,97.9637364 6.65152052,97.2468358 6.8319114,96.5373258 L7.43413941,94.4235775 L4.89201564,93.7186868 L4.27776156,95.8767795 C4.09274528,96.6019947 3.93640651,97.3336768 3.76434137,98.0616636" id="Fill-103"></path>
                                <path d="M2.1390658,105.942767 L4.73946971,106.392677 C5.01144365,104.954257 5.22236221,103.501979 5.54429055,102.073721 L2.96238827,101.531426 C2.63305928,102.991095 2.41659023,104.472936 2.1390658,105.942767" id="Fill-105"></path>
                                <polygon id="Fill-107" points="1.00038306 113.88198 3.62298893 114.167447 4.17803779 109.807841 1.5665329 109.42999"></polygon>
                                <path d="M11.6284586,75.2380778 L14.02997,76.3300579 C14.632198,74.9941838 15.2214749,73.6527666 15.9171362,72.3612368 L13.5554033,71.1851871 C12.8458658,72.5044321 12.2436378,73.8735646 11.6284586,75.2380778" id="Fill-109"></path>
                                <polygon id="Fill-111" points="8.51759479 82.6613255 10.9838619 83.5981003 12.598129 79.5101036 10.1660899 78.4864877"></polygon>
                                <polygon id="Fill-113" points="5.88148274 90.2379308 8.40232964 91.015805 9.80197785 86.8502056 7.31073355 85.9836427"></polygon>
                                <path d="M23.6919831,54.3240715 L25.8427974,55.850257 C26.7031231,54.664045 27.5125694,53.4399556 28.4459765,52.3073265 L26.349742,50.7063099 C25.3978332,51.8629589 24.5698853,53.1119921 23.6919831,54.3240715" id="Fill-115"></path>
                                <polygon id="Fill-117" points="19.2223596 61.0186858 21.4656821 62.406295 23.8403661 58.7063116 21.6479231 57.2410997"></polygon>
                                <path d="M15.2076912,67.9651391 L17.534271,69.2086291 C18.1975544,67.901394 18.9783231,66.6588278 19.6943362,65.3802318 L17.4130853,64.0563675 C16.6813459,65.3608311 15.8857759,66.6311126 15.2076912,67.9651391" id="Fill-119"></path>
                                <path d="M39.492929,36.0610272 L41.3171896,37.9650636 C42.3930593,36.9691629 43.4069485,35.9058219 44.5401733,34.9727424 L42.7834436,33.0058848 C41.6280169,33.9602126 40.5910007,35.0438781 39.492929,36.0610272" id="Fill-121"></path>
                                <polygon id="Fill-123" points="33.8371661 41.7921675 35.777987 43.5770285 38.8150293 40.3962437 36.9380391 38.5439424"></polygon>
                                <path d="M28.5884391,47.8620805 L30.6374945,49.521299 C31.518172,48.3489447 32.5376117,47.289299 33.4802697,46.167756 L31.4904195,44.4364778 C30.5274098,45.5820407 29.4894684,46.6657063 28.5884391,47.8620805" id="Fill-125"></path>
                                <path d="M58.4538606,21.0955411 L59.8858866,23.3081404 C61.1319713,22.5348854 62.332727,21.688647 63.6139648,20.9745179 L62.2605707,18.7120311 C60.9525055,19.4418656 59.7258476,20.305657 58.4538606,21.0955411" id="Fill-127"></path>
                                <polygon id="Fill-129" points="51.8165863 25.6574682 53.3864495 27.7749119 56.9729902 25.228806 55.4780586 23.0568556"></polygon>
                                <path d="M45.5213147,30.6375258 L47.2216143,32.653347 C48.308585,31.6676086 49.5000899,30.8093603 50.6434906,29.8910623 L49.0153472,27.8170391 C47.8478945,28.7538139 46.6323375,29.6323868 45.5213147,30.6375258" id="Fill-131"></path>
                                <path d="M79.9074241,9.97970066 L80.8926358,12.4241841 C82.2608313,11.895747 83.6142254,11.3275848 84.9944469,10.832406 L84.0952678,8.35466424 C82.6863687,8.86092914 81.3042971,9.44017748 79.9074241,9.97970066" id="Fill-133"></path>
                                <polygon id="Fill-135" points="72.5212039 13.1973467 73.6609042 15.5743897 77.6702072 13.7636613 76.6165394 11.3487407"></polygon>
                                <path d="M65.4014997,16.9085086 L66.6901381,19.207949 C67.9463987,18.4503993 69.267415,17.8111013 70.5699296,17.1394689 L69.3645485,14.7956841 C68.0333564,15.482098 66.6855127,16.1361775 65.4014997,16.9085086" id="Fill-137"></path>
                                <polygon id="Fill-139" points="103.08682 3.1393043 103.588214 5.72605927 107.919445 4.95372815 107.510559 2.35034404"></polygon>
                                <path d="M95.2240899,4.90171589 L95.8892235,7.45151722 C97.3092235,7.08567616 98.7458749,6.78358013 100.17235,6.4454543 L99.5988,3.87348079 C98.1408717,4.21807351 96.6736925,4.52756026 95.2240899,4.90171589" id="Fill-141"></path>
                                <polygon id="Fill-143" points="87.5275974 7.19505894 88.3546202 9.69682053 90.4388287 8.99747285 92.5563401 8.3979 91.8190502 5.86749934 89.6580599 6.4809298"></polygon>
                                <polygon id="Fill-145" points="127.145227 0.803556954 127.149853 3.43835166 131.550465 3.53812649 131.636498 0.90517947"></polygon>
                                <path d="M119.093689,1.0944745 L119.262979,3.72465 C120.724607,3.58237848 122.191786,3.56113013 123.658965,3.52694801 L123.581259,0.893077152 C122.083552,0.928183113 120.585845,0.950355298 119.093689,1.0944745" id="Fill-147"></path>
                                <path d="M111.10043,1.86856093 L111.435309,4.48210728 C112.892313,4.31951126 114.340065,4.06083576 115.806319,3.98692848 L115.564873,1.36321987 C114.067166,1.43989868 112.588886,1.70226954 111.10043,1.86856093" id="Fill-149"></path>
                                <path d="M151.210943,3.05809868 L150.719725,5.64762517 C152.169328,5.87581391 153.596728,6.21301589 155.025054,6.5483702 L155.60878,3.97824437 C154.149927,3.63642318 152.691999,3.29183046 151.210943,3.05809868" id="Fill-151"></path>
                                <path d="M143.250155,1.81802682 L142.923601,4.43249702 C144.375979,4.63851358 145.842233,4.75399371 147.28166,5.03391755 L147.700722,2.43238113 C146.229842,2.14691424 144.733061,2.02773874 143.250155,1.81802682" id="Fill-153"></path>
                                <polygon id="Fill-155" points="135.255046 1.0642649 135.094082 3.6944404 139.481743 4.02794702 139.736141 1.40423841"></polygon>
                                <path d="M174.415686,9.81100728 L173.4388,12.2591861 C174.80607,12.7894709 176.171491,13.3225272 177.497132,13.9525868 L178.560051,11.5413616 C177.207582,10.8983682 175.812559,10.3523781 174.415686,9.81100728" id="Fill-157"></path>
                                <polygon id="Fill-159" points="166.841582 7.06609073 166.022885 9.57062384 170.190377 10.9794815 171.097881 8.5054351"></polygon>
                                <polygon id="Fill-161" points="159.138244 4.79251788 158.481436 7.34416689 162.713683 8.54516026 163.462074 6.01753113"></polygon>
                                <path d="M195.909306,20.8478593 L194.48468,23.0660017 C195.714113,23.8642003 196.973149,24.6189785 198.151703,25.493856 L199.65311,23.3274487 C198.450504,22.4340944 197.164641,21.6626871 195.909306,20.8478593" id="Fill-163"></path>
                                <polygon id="Fill-165" points="189.00015 16.7082199 187.718912 19.0122795 191.533948 21.2027066 192.895668 18.9448391"></polygon>
                                <path d="M181.862407,13.0317944 L180.729182,15.4116089 C182.064999,16.0194964 183.348087,16.730854 184.659853,17.3849334 L185.87726,15.0466917 C184.537742,14.3787546 183.225051,13.6526156 181.862407,13.0317944" id="Fill-167"></path>
                                <path d="M214.925002,35.7443344 L213.107217,37.6539139 C214.155334,38.6784536 215.263582,39.6429437 216.252494,40.728457 L218.13596,38.8826225 C217.125771,37.7758609 215.995321,36.7901225 214.925002,35.7443344" id="Fill-169"></path>
                                <polygon id="Fill-171" points="208.924646 30.3745083 207.230822 32.3949487 210.557415 35.2727136 212.32062 33.3123228"></polygon>
                                <path d="M202.605322,25.4246603 L201.04286,27.547647 C202.254717,28.3744848 203.364814,29.3362033 204.531342,30.2240146 L206.168736,28.1573821 C204.977231,27.251094 203.843081,26.2699748 202.605322,25.4246603" id="Fill-173"></path>
                                <path d="M230.791444,53.9501007 L228.647105,55.4846007 C229.478753,56.6902132 230.387183,57.8440907 231.157776,59.0922 L233.354844,57.6343788 C232.568525,56.3613258 231.642519,55.1815808 230.791444,53.9501007" id="Fill-175"></path>
                                <polygon id="Fill-177" points="225.913027 47.5458497 223.868597 49.2124589 226.587411 52.6676245 228.689196 51.0739987"></polygon>
                                <path d="M220.635437,41.50125 L218.700167,43.2925778 C219.737183,44.3300513 220.650238,45.4811573 221.623424,46.5759089 L223.6216,44.8529454 C222.626212,43.7350977 221.694655,42.5608957 220.635437,41.50125" id="Fill-179"></path>
                                <path d="M242.932212,74.8199474 L240.534401,75.9202421 C241.126453,77.2607354 241.771235,78.5781328 242.320734,79.9361791 L244.756473,78.9208778 C244.194023,77.5341924 243.537216,76.188156 242.932212,74.8199474" id="Fill-181"></path>
                                <polygon id="Fill-183" points="239.35927 67.6074278 237.036391 68.8583086 239.041967 72.7689278 241.408326 71.6021166"></polygon>
                                <path d="M235.311114,60.6803752 L233.071492,62.0744513 C233.891114,63.29115 234.5877,64.5826798 235.325915,65.8483421 L237.611792,64.5337162 C236.858775,63.2412626 236.146463,61.9229414 235.311114,60.6803752" id="Fill-185"></path>
                                <polygon id="Fill-187" points="250.88301 97.614155 248.319609 98.2377477 249.309446 102.519751 251.893199 101.987619"></polygon>
                                <polygon id="Fill-189" points="248.750975 89.8535205 246.231978 90.6397093 247.441984 94.8644344 249.986883 94.1678583"></polygon>
                                <path d="M246.085075,82.2873546 L243.621583,83.2315202 C243.885231,83.9151626 244.172932,84.5895666 244.416228,85.2796758 L245.12114,87.3610897 L247.616085,86.5046891 L246.896371,84.3798546 C246.646599,83.6740401 246.354274,82.9848546 246.085075,82.2873546" id="Fill-191"></path>
                                <polygon id="Fill-193" points="254.362889 121.502745 251.727332 121.631159 251.838341 126.024947 254.476674 125.987993"></polygon>
                                <path d="M253.698958,113.48325 L251.077277,113.777031 C251.297446,115.226538 251.348326,116.693598 251.475987,118.152343 L254.105993,117.950945 C253.976482,116.461714 253.922827,114.964167 253.698958,113.48325" id="Fill-195"></path>
                                <path d="M252.540756,105.547178 L249.941277,106.005403 C250.193824,107.448443 250.487075,108.885016 250.639713,110.342837 L253.253068,109.976996 C253.09673,108.487764 252.797928,107.020705 252.540756,105.547178" id="Fill-197"></path>
                            </g>
                            <path d="M256.053793,134.783804 C256.053793,196.914887 205.617428,247.285473 143.402001,247.285473 C81.1847244,247.285473 30.7483596,196.914887 30.7483596,134.783804 C30.7483596,72.6508735 81.1847244,22.2821351 143.402001,22.2821351 C205.617428,22.2821351 256.053793,72.6508735 256.053793,134.783804 Z" id="Stroke-200" stroke="#4AB4F3" stroke-width="1.697"></path>
                            <g id="Group-4" transform="translate(222.000000, 96.000000)">
                                <path d="M49.3929003,0.15004404 C37.2613824,0.15004404 34.6600534,11.8338619 34.6600534,11.8338619 C34.6600534,11.8338619 32.0596495,0.15004404 19.9272065,0.15004404 C7.79198827,0.15004404 3.89184495,12.2671434 7.35997524,21.354044 C10.8290306,30.4427924 29.0253824,44.290246 34.6600534,47.3204447 C40.2947244,44.290246 58.4929264,30.4427924 61.9601316,21.354044 C65.4273368,12.2671434 61.5281186,0.15004404 49.3929003,0.15004404" id="Fill-202" fill="#E21010"></path>
                                <polyline id="Stroke-204" stroke="#FFFFFF" stroke-width="1.083" points="0.800870358 23.7350596 20.6420169 23.7350596 25.8418997 15.7031854 28.9955023 35.9537815 32.6690007 21.9437318 36.1066033 31.7844868 40.8531961 15.7031854 43.3536912 27.9616325 75.420714 27.9616325"></polyline>
                            </g>
                            <g id="Group-3">
                                <path d="M62.9207088,83.5518159 C62.8328261,82.8811073 62.0613081,82.6187364 61.4942332,82.7111205 C43.1776208,85.7089848 24.1921746,84.7287894 5.75530163,83.3347132 C5.38896938,83.1490212 4.92272834,83.1490212 4.5610215,83.3439517 C3.97266971,83.5619781 3.78210293,84.2788788 3.99209642,84.8507364 C3.54250684,109.562561 2.16506059,134.389866 5.39081954,158.980667 C5.47870228,159.653223 6.2502202,159.91467 6.8182202,159.822286 C25.1329824,156.824422 44.1193537,157.805541 62.5562267,159.198693 C62.922559,159.385309 63.3888,159.385309 63.7495818,159.190379 C64.3388586,158.972352 64.5294254,158.255452 64.3185068,157.68267 C64.7690215,132.97177 66.1455427,108.143541 62.9207088,83.5518159" id="Fill-206" fill="#C7D2E6"></path>
                                <path d="M24.8776599,92.7126238 C18.4011648,87.2564185 8.80437003,91.8904053 7.9690215,99.8834781 C7.61379023,103.285985 8.75071531,107.257577 11.8173603,109.131127 C16.517699,112.006121 23.7869889,110.50765 27.0182984,106.132339 C30.1543244,101.887289 28.751901,95.9774781 24.8776599,92.7126238" id="Fill-208" fill="#E21010"></path>
                                <path d="M16.75563,93.885902 L16.75563,107.065419 C16.75563,109.08124 19.8925811,109.084011 19.8925811,107.065419 L19.8925811,93.885902 C19.8925811,91.8700808 16.75563,91.8673093 16.75563,93.885902" id="Fill-210" fill="#FFFFFF"></path>
                                <path d="M24.9219713,98.9097497 L11.7247596,98.9097497 C9.707157,98.9097497 9.70345668,102.042495 11.7247596,102.042495 L24.9219713,102.042495 C26.940499,102.042495 26.9432743,98.9097497 24.9219713,98.9097497" id="Fill-212" fill="#FFFFFF"></path>
                                <mask id="mask-2" fill="white">
                                    <use xlink:href="#path-1"></use>
                                </mask>
                                <g id="Clip-215"></g>
                                <polygon id="Fill-214" fill="#36536E" mask="url(#mask-2)" points="31.5665537 96.2947252 59.1524821 96.2947252 59.1524821 94.6900132 31.5665537 94.6900132"></polygon>
                                <polygon id="Fill-216" fill="#36536E" mask="url(#mask-2)" points="31.5665537 100.322672 59.1524821 100.322672 59.1524821 98.7170364 31.5665537 98.7170364"></polygon>
                                <polygon id="Fill-217" fill="#36536E" mask="url(#mask-2)" points="31.5665537 104.350619 59.1524821 104.350619 59.1524821 102.744983 31.5665537 102.744983"></polygon>
                                <polygon id="Fill-218" fill="#36536E" mask="url(#mask-2)" points="31.5665537 108.378566 59.1524821 108.378566 59.1524821 106.772007 31.5665537 106.772007"></polygon>
                                <polygon id="Fill-219" fill="#36536E" mask="url(#mask-2)" points="9.93444951 116.02797 59.6418502 116.02797 59.6418502 114.421411 9.93444951 114.421411"></polygon>
                                <polygon id="Fill-220" fill="#36536E" mask="url(#mask-2)" points="9.93537459 120.055917 59.6418502 120.055917 59.6418502 118.450281 9.93537459 118.450281"></polygon>
                                <polygon id="Fill-221" fill="#36536E" mask="url(#mask-2)" points="9.93537459 124.08294 59.6418502 124.08294 59.6418502 122.478228 9.93537459 122.478228"></polygon>
                                <polygon id="Fill-222" fill="#36536E" mask="url(#mask-2)" points="9.93444951 128.110887 59.6418502 128.110887 59.6418502 126.505252 9.93444951 126.505252"></polygon>
                                <polygon id="Fill-223" fill="#36536E" mask="url(#mask-2)" points="9.93444951 136.02451 40.3825798 136.02451 40.3825798 134.418874 9.93444951 134.418874"></polygon>
                                <polygon id="Fill-224" fill="#36536E" mask="url(#mask-2)" points="9.93444951 140.051533 40.3825798 140.051533 40.3825798 138.445897 9.93444951 138.445897"></polygon>
                                <polygon id="Fill-225" fill="#36536E" mask="url(#mask-2)" points="9.93444951 144.07948 40.3825798 144.07948 40.3825798 142.474768 9.93444951 142.474768"></polygon>
                                <polygon id="Fill-226" fill="#36536E" mask="url(#mask-2)" points="9.93444951 148.107427 40.3825798 148.107427 40.3825798 146.501791 9.93444951 146.501791"></polygon>
                                <polygon id="Fill-227" fill="#4AB4F3" mask="url(#mask-2)" points="46.6537068 142.417767 43.9015896 150.008969 48.3382801 148.687876 50.2402476 152.801741 52.1459153 142.417767"></polygon>
                                <polygon id="Fill-228" fill="#4AB4F3" mask="url(#mask-2)" points="57.6371987 142.417767 60.389316 150.008969 55.9526254 148.687876 54.050658 152.801741 52.1449902 142.417767"></polygon>
                                <path d="M57.3322919,132.592071 C52.2073407,128.273114 44.6124221,131.939839 43.9509889,138.267226 C43.6697642,140.960223 44.5689433,144.102207 46.996357,145.585895 C50.7170345,147.859468 56.4691909,146.67418 59.027041,143.211624 C61.5081094,139.852538 60.3980117,135.17513 57.3322919,132.592071" id="Fill-229" fill="#FFE6B3" mask="url(#mask-2)"></path>
                                <path d="M56.1357915,134.009335 C52.1930945,130.686279 46.349355,133.50769 45.8414853,138.374484 C45.6250163,140.44666 46.3169772,142.864352 48.1837915,144.00622 C51.0459935,145.755051 55.4725081,144.84322 57.4392313,142.179786 C59.3485993,139.594878 58.4956743,135.997441 56.1357915,134.009335" id="Fill-230" fill="#FFCA11" mask="url(#mask-2)"></path>
                            </g>
                        </g>
                        <g id="surgeon" transform="translate(38.000000, 187.000000)">
                            <path d="M32.168425,38.4764306 C29.2127375,37.3996545 24.0213833,36.5850201 24.0213833,25.3588634 L13.9733521,25.3588634 C13.9733521,36.5850201 8.78100833,37.3996545 5.82551875,38.4764306 C5.82551875,46.1117888 16.7239979,46.3463261 18.6010396,47.0579978 L18.6010396,47.3058336 C18.6010396,47.3058336 18.7473,47.2760127 18.9968729,47.1964231 C19.2466437,47.2760127 19.3927062,47.3058336 19.3927062,47.3058336 L19.3927062,47.0579978 C21.2699458,46.3463261 32.168425,46.1117888 32.168425,38.4764306" id="Fill-1" fill="#F3D8B6"></path>
                            <path d="M24.0213635,25.3588433 L18.994676,25.3588433 L18.994676,47.197209 C18.9954677,47.197209 18.9960615,47.196403 18.9968531,47.196403 C19.2474156,47.2759925 19.3934781,47.3058134 19.3934781,47.3058134 L19.3934781,47.0579776 C21.2707177,46.3471119 32.1684052,46.1117687 32.1684052,38.4764104 C29.2127177,37.3996343 24.0213635,36.585 24.0213635,25.3588433" id="Fill-3" fill="#EEC8A2"></path>
                            <g id="Group-7" transform="translate(0.000000, 34.132433)">
                                <mask id="mask-4" fill="white">
                                    <use xlink:href="#path-3"></use>
                                </mask>
                                <g id="Clip-6"></g>
                                <path d="M37.9938052,13.1891978 L37.9938052,19.7463694 L-5.9375e-05,19.7463694 L-5.9375e-05,13.1891978 C-5.9375e-05,8.28325746 2.75137813,4.00718284 6.42906562,1.75852612 C7.38619063,1.17117537 9.54625312,0.56025 10.6797219,0.275339552 C11.622201,0.036369403 19.1406594,0.232220149 19.1406594,0.232220149 C19.1406594,0.232220149 26.8471385,0.196958955 27.7894198,0.436936567 C28.9220969,0.721847015 30.6083469,1.17117537 31.5654719,1.75852612 C35.2431594,4.00718284 37.9938052,8.28325746 37.9938052,13.1891978" id="Fill-5" fill="#66A299" mask="url(#mask-4)"></path>
                            </g>
                            <path d="M31.5653927,35.8908582 C30.6082677,35.303709 28.9222156,34.8541791 27.7895385,34.5692687 C26.8470594,34.330097 19.1407781,34.3647537 19.1407781,34.3647537 C19.1407781,34.3647537 19.088924,34.3631418 18.9947156,34.3607239 L18.9947156,53.8787015 L37.993726,53.8787015 L37.993726,47.3215299 C37.993726,42.415791 35.2430802,38.1395149 31.5653927,35.8908582" id="Fill-8" fill="#5A9291"></path>
                            <path d="M28.8533208,20.3978754 C28.6461021,21.2376963 28.4034563,21.9296216 28.1489354,22.4097784 C28.1358729,22.434159 28.1220187,22.4585396 28.1087583,22.4837261 C27.3620188,23.8633455 26.1761021,25.4595694 24.644425,26.7180918 C23.0850396,28.0003903 21.1694042,28.9314873 18.9968729,28.9314873 C14.6892167,28.9314873 11.3911333,25.269159 9.8849875,22.4837261 C9.871925,22.4585396 9.85807083,22.434159 9.84560208,22.4097784 C9.5904875,21.9296216 9.34843542,21.2376963 9.14062292,20.3978754 C8.13085208,16.343644 7.87890417,8.84509925 10.5329667,5.17974851 C13.6693521,0.845241045 18.9968729,2.94922612 18.9968729,2.94922612 C18.9968729,2.94922612 24.3251854,0.845241045 27.4617687,5.17974851 C30.1150396,8.84509925 29.8630917,16.343644 28.8533208,20.3978754" id="Fill-10" fill="#F3DBC4"></path>
                            <path d="M28.8533208,20.3978754 C28.6461021,21.2376963 28.4034562,21.9296216 28.1489354,22.4097784 C28.1358729,22.434159 28.1220188,22.4585396 28.1087583,22.4837261 C27.3620188,23.8633455 26.1761021,25.4595694 24.644425,26.7180918 C23.0850396,28.0003903 21.1694042,28.9314873 18.9968729,28.9314873 L18.9968729,2.94922612 C18.9968729,2.94922612 24.3251854,0.845241045 27.4617687,5.17974851 C30.1150396,8.84509925 29.8630917,16.343644 28.8533208,20.3978754" id="Fill-12" fill="#EDCEAE"></path>
                            <path d="M28.0941125,4.50918134 C27.7523104,4.52247985 24.0615604,2.39431567 21.5420812,1.87325597 C35.9628833,4.85695746 1.1758625,6.78604701 17.42205,2.11726343 C12.7656646,0.664300746 8.31174792,4.45014403 8.47720625,7.99903209 C8.75547708,13.9744948 7.72037292,13.8832187 8.43010208,15.9706813 C9.13983125,18.0579425 9.77059167,19.7438306 9.77059167,19.7438306 C9.77059167,19.7438306 9.92833125,20.3184873 10.2438104,17.0269052 C10.5592896,13.7361291 9.51864375,10.1973157 12.0072479,10.5184948 C14.4950604,10.8396739 13.7150708,12.9049724 19.0425917,12.9049724 C24.3297375,12.9049724 23.589925,10.8396739 26.0785292,10.5184948 C28.5665396,10.1973157 27.5266854,13.7361291 27.8421646,17.0269052 C28.1574458,20.3184873 28.3151854,19.7438306 28.3151854,19.7438306 C28.3151854,19.7438306 29.726925,18.1784351 29.6550812,15.9706813 C29.5745292,13.4794276 30.6638625,4.41226343 28.0941125,4.50918134" id="Fill-14" fill="#545465"></path>
                            <path d="M27.3024458,4.50918134 C26.96005,4.51220373 24.0615604,2.39431567 21.5420813,1.87325597 C20.2447375,1.60486791 19.5134354,4.77837537 19.006175,4.83418881 L19.006175,12.9041664 C19.0186438,12.9041664 19.0301229,12.9049724 19.0433833,12.9049724 C24.3297375,12.9049724 23.589925,10.8396739 26.0785292,10.5184948 C28.5673312,10.1973157 27.5266854,13.7353231 27.8421646,17.0269052 C28.1574458,20.3184873 28.3151854,19.7438306 28.3151854,19.7438306 C28.3151854,19.7438306 29.7061438,18.1790396 29.6558729,15.9706813 C29.6006542,13.5872261 30.3661958,4.48238284 27.3024458,4.50918134" id="Fill-16" fill="#494857"></path>
                            <path d="M18.9968135,11.8911224 C23.664876,11.8911224 27.685949,12.9064433 29.5111365,14.3680701 L29.9093448,14.3680701 L29.9093448,5.03574179 C29.9093448,5.03574179 28.6127927,4.02985075e-05 18.9968135,4.02985075e-05 C9.58112604,4.02985075e-05 8.08448021,5.03574179 8.08448021,5.03574179 L8.08448021,14.3680701 L8.48249063,14.3680701 C10.307876,12.9064433 14.328751,11.8911224 18.9968135,11.8911224" id="Fill-18" fill="#66A299"></path>
                            <path d="M19.0060958,0 L19.0060958,11.8910821 C23.6696062,11.892694 27.6867208,12.907209 29.5113146,14.3680299 L29.909325,14.3680299 L29.909325,5.03570149 C29.909325,5.03570149 28.6135646,0.000805970149 19.0060958,0" id="Fill-20" fill="#5A9291"></path>
                            <path d="M14.0233854,19.1228104 L17.7196771,17.5290045 C18.5360833,17.1771985 19.4575833,17.1771985 20.2741875,17.5290045 L23.9710729,19.1228104 C25.1825208,19.6446761 25.9688437,20.8544373 25.9688437,22.1931537 L25.9688437,23.7869597 C25.9688437,25.1258776 25.1817292,26.3348328 23.9710729,26.8575045 L20.2741875,28.4513104 C19.4575833,28.8031164 18.5360833,28.8031164 17.7196771,28.4513104 L14.0233854,26.8575045 C12.8119375,26.3348328 12.0250208,25.1258776 12.0250208,23.7869597 L12.0250208,22.1931537 C12.0250208,20.8544373 12.8119375,19.6446761 14.0233854,19.1228104" id="Fill-22" fill="#66A299"></path>
                            <polygon id="Fill-24" fill="#66A299" points="9.03604375 16.6017963 10.3288354 15.6706993 14.0845021 21.0725127 12.7919083 22.0044157"></polygon>
                            <path d="M14.2213021,22.638694 L13.5929167,24.1184552 L9.88494792,22.4837463 C9.87188542,22.4585597 9.85803125,22.4341791 9.8455625,22.4097985 C9.59044792,21.9296418 9.34839583,21.2377164 9.14058333,20.3978955 L14.2213021,22.638694 Z" id="Fill-26" fill="#66A299"></path>
                            <polygon id="Fill-28" fill="#5A9291" points="25.2026687 22.0044157 23.910075 21.0733187 27.6657417 15.6715052 28.9585333 16.6026022"></polygon>
                            <path d="M28.8533208,20.3978754 C28.6461021,21.2376963 28.4034562,21.9296216 28.1489354,22.4097784 C28.1358729,22.434159 28.1220187,22.4585396 28.1087583,22.4837261 L24.4009875,24.1184351 L23.7724042,22.6386739 L28.8533208,20.3978754 Z" id="Fill-30" fill="#5A9291"></path>
                            <path d="M23.9711125,19.1228104 L20.2740292,17.5290045 C19.865925,17.3526985 19.4314979,17.2652507 18.9968729,17.2652507 L18.9968729,28.7150642 C19.4314979,28.7150642 19.865925,28.6268104 20.2740292,28.4513104 L23.9711125,26.8575045 C25.1817687,26.3348328 25.9688833,25.1258776 25.9688833,23.7869597 L25.9688833,22.1931537 C25.9688833,20.8544373 25.1817687,19.6446761 23.9711125,19.1228104" id="Fill-32" fill="#5A9291"></path>
                            <g id="Group-36" transform="translate(7.520833, 38.766761)">
                                <mask id="mask-6" fill="white">
                                    <use xlink:href="#path-5"></use>
                                </mask>
                                <g id="Clip-35"></g>
                                <polygon id="Fill-34" fill="#5A9291" mask="url(#mask-6)" points="14.7301063 0.154363433 0.120491667 0.154363433 0.120491667 15.1119604 2.17862708 15.1119604 2.17862708 2.25028881 14.7061583 2.25028881"></polygon>
                            </g>
                            <path d="M29.8042312,15.4266716 C30.6259812,15.7440224 30.8603146,17.1607164 30.3283146,18.5915149 C29.7957208,20.0225149 28.6978771,20.9252015 27.8761271,20.6080522 C27.0541792,20.291709 26.8200437,18.874209 27.3526375,17.4440149 C27.8854292,16.0130149 28.9832729,15.1103284 29.8042312,15.4266716" id="Fill-37" fill="#EDCEAE"></path>
                            <path d="M10.116075,20.6080321 C9.29511667,20.9251813 8.19727292,20.0216888 7.66467917,18.5914948 C7.1318875,17.1606963 7.3670125,15.7440022 8.18797083,15.4266515 C9.00972083,15.1095022 10.1075646,16.0129948 10.6403562,17.4431888 C11.1721583,18.8741888 10.9380229,20.2908828 10.116075,20.6080321" id="Fill-39" fill="#F3DBC4"></path>
                        </g>
                        <g id="cardiograf" transform="translate(209.000000, 199.000000)">
                            <path d="M28.4420617,5.22072923 C28.4420617,5.62199077 28.114789,5.94765231 27.7108929,5.94765231 L26.5498539,5.94765231 L26.5498539,7.10297538 C26.5498539,7.50504462 26.2225812,7.83054462 25.8186851,7.83054462 L25.329724,7.83054462 C24.9258279,7.83054462 24.5985552,7.50504462 24.5985552,7.10297538 L24.5985552,5.94765231 L23.4375162,5.94765231 C23.0342695,5.94765231 22.7069968,5.62199077 22.7069968,5.22072923 L22.7069968,4.73352923 C22.7069968,4.33226769 23.0342695,4.00612154 23.4375162,4.00612154 L24.5985552,4.00612154 L24.5985552,2.85128308 C24.5985552,2.44937538 24.9258279,2.12371385 25.329724,2.12371385 L25.8186851,2.12371385 C26.2225812,2.12371385 26.5498539,2.44937538 26.5498539,2.85128308 L26.5498539,4.00612154 L27.7108929,4.00612154 C28.114789,4.00612154 28.4420617,4.33226769 28.4420617,4.73352923 L28.4420617,5.22072923 Z M36.0693344,2.49735231 C36.0693344,1.19680615 35.0097565,0.142444615 33.702776,0.142444615 L17.4456331,0.142444615 C16.1386526,0.142444615 15.0790747,1.19680615 15.0790747,2.49735231 L15.0790747,8.83321385 L36.0693344,8.83321385 L36.0693344,2.49735231 Z" id="Fill-1" fill="#E0DCD3"></path>
                            <g id="Group-8" transform="translate(0.000000, 2.087077)">
                                <path d="M27.7109091,1.91959385 L26.5498701,1.91959385 L26.5498701,0.764270769 C26.5498701,0.362363077 26.2225974,0.0367015385 25.8187013,0.0367015385 L25.3297403,0.0367015385 C24.9258442,0.0367015385 24.5985714,0.362363077 24.5985714,0.764270769 L24.5985714,1.91959385 L23.4375325,1.91959385 C23.0342857,1.91959385 22.707013,2.24525538 22.707013,2.64716308 L22.707013,3.13371692 C22.707013,3.53497846 23.0342857,3.86128615 23.4375325,3.86128615 L24.5985714,3.86128615 L24.5985714,5.01596308 C24.5985714,5.41803231 24.9258442,5.74353231 25.3297403,5.74353231 L25.8187013,5.74353231 C26.2225974,5.74353231 26.5498701,5.41803231 26.5498701,5.01596308 L26.5498701,3.86128615 L27.7109091,3.86128615 C28.1148052,3.86128615 28.4420779,3.53497846 28.4420779,3.13371692 L28.4420779,2.64716308 C28.4420779,2.24525538 28.1148052,1.91959385 27.7109091,1.91959385" id="Fill-3" fill="#E74424"></path>
                                <g id="Group-7" transform="translate(0.000000, 6.623077)">
                                    <mask id="mask-8" fill="white">
                                        <use xlink:href="#path-7"></use>
                                    </mask>
                                    <g id="Clip-6"></g>
                                    <path d="M46.2814448,20.9603908 L40.049789,20.9603908 C39.2660227,20.9603908 38.6299838,20.3281292 38.6299838,19.5474138 C38.6299838,18.7675062 39.2660227,18.1345985 40.049789,18.1345985 L46.2814448,18.1345985 C47.0658604,18.1345985 47.70125,18.7675062 47.70125,19.5474138 C47.70125,20.3281292 47.0658604,20.9603908 46.2814448,20.9603908 Z M46.1431331,24.9634754 L39.912289,24.9634754 C39.1278734,24.9634754 38.4918344,24.3312138 38.4918344,23.55066 C38.4918344,22.7701062 39.1278734,22.1378446 39.912289,22.1378446 L46.1431331,22.1378446 C46.9275487,22.1378446 47.5631006,22.7701062 47.5631006,23.55066 C47.5631006,24.3312138 46.9275487,24.9634754 46.1431331,24.9634754 Z M46.0056331,28.9667215 L39.7739773,28.9667215 C38.990211,28.9667215 38.3541721,28.3342985 38.3541721,27.5537446 C38.3541721,26.7731908 38.990211,26.1409292 39.7739773,26.1409292 L46.0056331,26.1409292 C46.7893994,26.1409292 47.4254383,26.7731908 47.4254383,27.5537446 C47.4254383,28.3342985 46.7893994,28.9667215 46.0056331,28.9667215 Z M35.6540097,19.4944292 L35.6540097,27.2048215 C35.6540097,28.1777677 34.8613149,28.9667215 33.8835552,28.9667215 L6.05465909,28.9667215 C5.07673701,28.9667215 4.28420455,28.1777677 4.28420455,27.2048215 L4.28420455,6.03940615 C4.28420455,5.06646 5.07673701,4.27831385 6.05465909,4.27831385 L33.8835552,4.27831385 C34.8613149,4.27831385 35.6540097,5.06646 35.6540097,6.03940615 L35.6540097,19.4944292 Z M40.2273864,11.4383446 C41.2509253,11.4383446 42.0809578,12.2644523 42.0809578,13.2835985 C42.0809578,14.3019369 41.2509253,15.1273985 40.2273864,15.1273985 C39.2038474,15.1273985 38.3738149,14.3019369 38.3738149,13.2835985 C38.3738149,12.2644523 39.2038474,11.4383446 40.2273864,11.4383446 Z M40.2273864,5.82682154 C41.2509253,5.82682154 42.0809578,6.65276769 42.0809578,7.67126769 C42.0809578,8.68976769 41.2509253,9.51571385 40.2273864,9.51571385 C39.2038474,9.51571385 38.3738149,8.68976769 38.3738149,7.67126769 C38.3738149,6.65276769 39.2038474,5.82682154 40.2273864,5.82682154 Z M45.7291721,11.4383446 C46.7531981,11.4383446 47.5827435,12.2644523 47.5827435,13.2835985 C47.5827435,14.3019369 46.7525487,15.1273985 45.7291721,15.1273985 C44.7056331,15.1273985 43.8756006,14.3019369 43.8756006,13.2835985 C43.8756006,12.2644523 44.7056331,11.4383446 45.7291721,11.4383446 Z M45.7291721,5.82682154 C46.7531981,5.82682154 47.5827435,6.65276769 47.5827435,7.67126769 C47.5827435,8.68976769 46.7525487,9.51571385 45.7291721,9.51571385 C44.7056331,9.51571385 43.8756006,8.68976769 43.8756006,7.67126769 C43.8756006,6.65276769 44.7056331,5.82682154 45.7291721,5.82682154 Z M47.6283604,0.12306 L2.36650974,0.12306 C1.05952922,0.12306 -4.87012987e-05,1.17693692 -4.87012987e-05,2.47748308 L-4.87012987e-05,30.7669062 C-4.87012987e-05,32.0672908 1.05952922,33.1218138 2.36650974,33.1218138 L47.6283604,33.1218138 C48.9353409,33.1218138 49.9949188,32.0679369 49.9949188,30.7669062 L49.9949188,2.47748308 C49.9949188,1.17758308 48.9353409,0.12306 47.6283604,0.12306 Z" id="Fill-5" fill="#E74424" mask="url(#mask-8)"></path>
                                </g>
                            </g>
                            <g id="Group-59" transform="translate(4.220779, 12.910154)">
                                <polygon id="Fill-9" fill="#F7F1E6" points="15.1881656 17.99259 15.7404383 15.3002285 15.0219318 15.3002285"></polygon>
                                <path d="M6.03003247,9.81675692 C6.08896104,9.64391077 6.25698052,9.53261077 6.44025974,9.54860308 C6.62224026,9.56314154 6.77126623,9.69996462 6.80048701,9.87991846 L7.55308442,14.4824723 L8.84480519,14.4837646 L9.95779221,9.85148769 C10.0008117,9.67104923 10.1689935,9.54650308 10.350974,9.54731077 C10.5373377,9.54989538 10.6972403,9.68090308 10.7345779,9.86263385 L11.6983766,14.4855415 L12.0801948,14.4855415 L13.6540584,5.87925692 C13.6896104,5.68169538 13.8659091,5.54164154 14.0688312,5.55424154 C14.2698052,5.56635692 14.4310065,5.72514923 14.4430195,5.92594154 L14.9719156,14.4881262 L15.9064935,14.4887723 L16.6358766,10.9334723 C16.6751623,10.7423723 16.8444805,10.6079723 17.0428571,10.6166954 C17.2383117,10.6250954 17.3987013,10.7733877 17.4214286,10.9662646 L17.8375,14.4907108 L18.2573052,14.4907108 L19.9168831,5.90445692 C19.9542208,5.70899538 20.1331169,5.56991077 20.3327922,5.58380308 C20.5324675,5.59704923 20.6923701,5.75551846 20.7050325,5.95421077 L21.2491883,14.4929723 L22.0310065,14.4936185 L22.5142857,12.0259569 C22.5496753,11.8442262 22.7069805,11.7111185 22.8933442,11.7053031 C23.0836039,11.7001338 23.2441558,11.8233877 23.2910714,12.0023723 L23.938474,14.4957185 L24.4261364,14.4957185 L24.7887987,13.0644877 C24.8300325,12.9024646 24.9694805,12.7829262 25.137013,12.7667723 C25.3037338,12.7494877 25.4641234,12.8412415 25.5352273,12.9924415 L26.2461039,14.4976569 L31.4332792,14.5013723 L31.4332792,1.83950308 C31.4332792,0.866556923 30.6399351,0.0782492308 29.6628247,0.0782492308 L1.83392857,0.0782492308 C0.856006494,0.0782492308 0.063474026,0.866556923 0.063474026,1.83950308 L0.063474026,14.4761723 L4.44837662,14.47908 L6.03003247,9.81675692 Z" id="Fill-11" fill="#F7F1E6"></path>
                                <polygon id="Fill-13" fill="#F7F1E6" points="11.9014479 15.4613323 11.9308879 15.3002123 11.8683279 15.3002123"></polygon>
                                <polygon id="Fill-15" fill="#F7F1E6" points="8.07693182 17.6829208 8.6488474 15.3002285 7.68699675 15.3002285"></polygon>
                                <polygon id="Fill-17" fill="#F7F1E6" points="24.1858653 15.4439892 24.2221853 15.3003092 24.1484253 15.3003092"></polygon>
                                <polygon id="Fill-19" fill="#F7F1E6" points="17.995663 15.8395892 18.098863 15.3002123 17.933263 15.3002123"></polygon>
                                <polygon id="Fill-21" fill="#F7F1E6" points="21.4425162 17.5075062 21.8743344 15.3002446 21.3017695 15.3002446"></polygon>
                                <polygon id="Fill-23" fill="#F7F1E6" points="6.27227273 11.5816938 5.28866883 14.48034 6.74662338 14.4817938"></polygon>
                                <polygon id="Fill-25" fill="#F7F1E6" points="13.8493506 9.23607462 12.8899351 14.4867208 14.174026 14.4873669"></polygon>
                                <polygon id="Fill-27" fill="#F7F1E6" points="16.9175605 13.5111577 16.7194805 14.4900808 17.0313205 14.4900808"></polygon>
                                <path d="M30.5638636,15.3002285 L25.0443831,15.3002285 L24.577013,17.1433823 C24.5326948,17.3194592 24.3740909,17.4425515 24.1921104,17.4431977 L24.1908117,17.4431977 C24.0094805,17.4431977 23.8508766,17.32059 23.8052597,17.1458054 L23.3258766,15.3002285 L22.6854545,15.3002285 L21.6315584,20.6839823 C21.5934091,20.8796054 21.416461,21.0178823 21.215487,21.00399 C21.0158117,20.9907438 20.8560714,20.8322746 20.8438961,20.6335823 L20.5033117,15.3002285 L18.9117532,15.3002285 L18.2922727,18.50499 C18.2554221,18.6968977 18.0893506,18.83259 17.8870779,18.82629 C17.690487,18.8186977 17.5287987,18.6704054 17.5057468,18.4760746 L17.1309091,15.3002285 L16.5533117,15.3002285 L15.365487,21.0896054 C15.3276623,21.2752131 15.1632143,21.4063823 14.9757143,21.4063823 C14.965974,21.4063823 14.9573701,21.4063823 14.9477922,21.4057362 C14.7481169,21.3918438 14.5901623,21.2330515 14.577987,21.0348438 L14.2236039,15.3002285 L12.7408117,15.3002285 L12.3193831,17.6078054 C12.2849675,17.7945438 12.1226299,17.9308823 11.9318831,17.9333054 L11.9275,17.9333054 C11.738539,17.9333054 11.5755519,17.80149 11.5372403,17.6171746 L11.0541234,15.3002285 L9.46678571,15.3002285 L8.38886364,19.7879285 C8.34503247,19.9714362 8.17457792,20.0953362 7.98756494,20.0921054 C7.79795455,20.0851592 7.63951299,19.94559 7.60899351,19.7594977 L6.87961039,15.3007131 L0.0628896104,15.3007131 L0.0628896104,23.0048054 C0.0628896104,23.9777515 0.855584416,24.7667054 1.83334416,24.7667054 L29.6627273,24.7667054 C30.6406494,24.7667054 31.4331818,23.9777515 31.4331818,23.0048054 L31.4331818,15.2944131 L30.5708442,15.2944131 L30.5638636,15.3002285 Z" id="Fill-29" fill="#F7F1E6"></path>
                                <polygon id="Fill-31" fill="#F7F1E6" points="22.958943 13.8948115 22.843263 14.4944423 23.112703 14.4950885"></polygon>
                                <polygon id="Fill-33" fill="#F7F1E6" points="20.1089448 9.10860462 19.0683604 14.4918738 20.4519643 14.4930046"></polygon>
                                <polygon id="Fill-35" fill="#F7F1E6" points="25.2885621 14.3335338 25.2479221 14.4954538 25.3648821 14.4954538"></polygon>
                                <polygon id="Fill-37" fill="#F7F1E6" points="10.3174026 11.7621646 9.66350649 14.4837646 10.8849351 14.4848954"></polygon>
                                <polygon id="Fill-39" fill="#1B2327" points="31.4218506 14.48181 0.0635714286 14.4761562 0.0635714286 15.3001638 31.4255844 15.3001638"></polygon>
                                <polygon id="Fill-41" fill="#1B2327" points="26.2486039 14.5019608 31.4331818 14.5019608 26.2466558 14.4976408"></polygon>
                                <path d="M26.2467045,14.4803885 L25.5358279,12.9924577 C25.464237,12.8412577 25.3043344,12.75015 25.1369643,12.7674346 C24.9694318,12.7829423 24.8306331,12.9023192 24.7893994,13.0645038 L24.426737,14.4963808 L24.2231656,15.3001962 L24.1864773,15.4454192 L24.1483279,15.3001962 L23.9390747,14.4957346 L23.2916721,12.0023885 C23.2449188,11.8234038 23.0843669,11.7007962 22.8941071,11.7059654 C22.7075812,11.7109731 22.550276,11.8442423 22.5148864,12.0259731 L22.0322565,14.4944423 L21.8743019,15.3001962 L21.4424838,17.5074577 L21.301737,15.3001962 L21.249789,14.4936346 L20.7056331,5.95422692 C20.6929708,5.75553462 20.5330682,5.59706538 20.3333929,5.58462692 C20.1335552,5.56992692 19.9548214,5.70901154 19.9173214,5.90511923 L18.2579058,14.4912115 L18.10125,15.3001962 L17.9971916,15.8395731 L17.9332305,15.3001962 L17.8381006,14.4905654 L17.4220292,10.9662808 C17.3993019,10.7734038 17.23875,10.6251115 17.0434578,10.6167115 C16.8450812,10.6079885 16.675763,10.7430346 16.6363149,10.9334885 L15.9070942,14.4894346 L15.7410227,15.3001962 L15.1885877,17.9925577 L15.0225162,15.3001962 L14.9723539,14.4881423 L14.4436201,5.92579615 C14.4314448,5.72597308 14.2704058,5.56621154 14.0694318,5.55490385 C13.8665097,5.54165769 13.690211,5.68171154 13.6546591,5.87911154 L12.0814448,14.4860423 L11.9025487,15.4628654 L11.8682955,15.3001962 L11.6989773,14.4855577 L10.7351786,9.86265 C10.6976786,9.68091923 10.5379383,9.54991154 10.3515747,9.54732692 C10.1695942,9.54651923 10.0014123,9.67106538 9.95839286,9.85150385 L8.84540584,14.4837808 L8.64881494,15.3006808 L8.07689935,17.6828885 L7.6874513,15.3006808 L7.55368506,14.4824885 L6.80108766,9.87993462 C6.77121753,9.69998077 6.62284091,9.56364231 6.44086039,9.54861923 C6.25758117,9.53327308 6.08891234,9.64441154 6.03047078,9.81677308 L4.44897727,14.4797423 L0.0634253247,14.4761885 L0.0634253247,15.3006808 L4.70449675,15.3006808 C4.87576299,15.3006808 5.05336039,15.1766192 5.10790584,15.0150808 L5.28923701,14.4803885 L6.2723539,11.5817423 L6.74654221,14.4818423 L6.88030844,15.3001962 L7.60952922,19.7596269 C7.63988636,19.9455577 7.79849026,20.0851269 7.98810065,20.0914269 C8.17511364,20.0953038 8.34573052,19.9714038 8.39021104,19.7878962 L9.46829545,15.3001962 L9.66407468,14.4837808 L10.3179708,11.7621808 L10.8855032,14.4849115 L11.0554708,15.3001962 L11.5381006,17.6171423 C11.5765747,17.8016192 11.7395617,17.9332731 11.9280357,17.9332731 L11.9330682,17.9332731 C12.1233279,17.93085 12.2856656,17.7946731 12.3199188,17.6077731 L12.7415097,15.3001962 L12.8905357,14.4866885 L13.8506006,9.23604231 L14.1746266,14.4873346 L14.224789,15.3001962 L14.5786851,21.0348115 C14.5913474,21.2330192 14.7491396,21.3918115 14.9483279,21.4057038 C14.9579058,21.40635 14.9674838,21.40635 14.9768994,21.40635 C15.1645617,21.40635 15.3281981,21.2751808 15.3661851,21.0895731 L16.5540097,15.3001962 L16.7200812,14.4900808 L16.9210552,13.5111577 L17.0364773,14.4900808 L17.1322565,15.3001962 L17.5070942,18.4760423 C17.5298214,18.6703731 17.6915097,18.8186654 17.8881006,18.8262577 C18.0905357,18.8325577 18.2566071,18.6970269 18.2934578,18.5049577 L18.9129383,15.3001962 L19.0689448,14.4918577 L20.1095292,9.10858846 L20.4531981,14.4929885 L20.5046591,15.3001962 L20.8444318,20.63355 C20.8570942,20.8322423 21.0163474,20.9907115 21.2161851,21.0039577 C21.4171591,21.01785 21.5947565,20.8795731 21.6327435,20.68395 L22.6859903,15.3001962 L22.8439448,14.4950885 L22.9613149,13.8948115 L23.1173214,14.4950885 L23.3265747,15.3001962 L23.8066071,17.1457731 C23.852224,17.3205577 24.0101786,17.4431654 24.1921591,17.4431654 L24.1934578,17.4431654 C24.3754383,17.4425192 24.5332305,17.3194269 24.577711,17.14335 L25.0450812,15.3001962 L25.2486526,14.4970269 L25.289724,14.33355 L25.3671591,14.4970269 L25.6366396,15.0667731 C25.7020617,15.2055346 25.8428084,15.2943808 25.9968669,15.2943808 L31.4345292,15.2943808 L31.4345292,14.4761885 L26.2467045,14.4803885 Z" id="Fill-43" fill="#2B3237"></path>
                                <path d="M37.8601786,3.47133231 C37.8601786,4.48983231 37.0301461,5.31577846 36.0066071,5.31577846 C34.9830682,5.31577846 34.1530357,4.48983231 34.1530357,3.47133231 C34.1530357,2.45283231 34.9830682,1.62688615 36.0066071,1.62688615 C37.0301461,1.62688615 37.8601786,2.45283231 37.8601786,3.47133231" id="Fill-45" fill="#F7F1E6"></path>
                                <path d="M43.3619156,3.47133231 C43.3619156,4.48983231 42.5318831,5.31577846 41.5083442,5.31577846 C40.4848052,5.31577846 39.6547727,4.48983231 39.6547727,3.47133231 C39.6547727,2.45283231 40.4848052,1.62688615 41.5083442,1.62688615 C42.5318831,1.62688615 43.3619156,2.45283231 43.3619156,3.47133231" id="Fill-47" fill="#F7F1E6"></path>
                                <path d="M37.8601786,9.08288769 C37.8601786,10.1020338 37.0301461,10.9273338 36.0066071,10.9273338 C34.9830682,10.9273338 34.1530357,10.1020338 34.1530357,9.08288769 C34.1530357,8.06438769 34.9830682,7.23844154 36.0066071,7.23844154 C37.0301461,7.23844154 37.8601786,8.06438769 37.8601786,9.08288769" id="Fill-49" fill="#F7F1E6"></path>
                                <path d="M43.3619156,9.08288769 C43.3619156,10.1020338 42.5318831,10.9273338 41.5083442,10.9273338 C40.4848052,10.9273338 39.6547727,10.1020338 39.6547727,9.08288769 C39.6547727,8.06438769 40.4848052,7.23844154 41.5083442,7.23844154 C42.5318831,7.23844154 43.3619156,8.06438769 43.3619156,9.08288769" id="Fill-51" fill="#F7F1E6"></path>
                                <path d="M42.0606656,13.9345662 L35.8290097,13.9345662 C35.0452435,13.9345662 34.4092045,14.5674738 34.4092045,15.3473815 C34.4092045,16.1280969 35.0452435,16.7608431 35.8290097,16.7608431 L42.0606656,16.7608431 C42.8450812,16.7608431 43.4804708,16.1280969 43.4804708,15.3473815 C43.4804708,14.5674738 42.8450812,13.9345662 42.0606656,13.9345662" id="Fill-53" fill="#1B2327"></path>
                                <path d="M41.9224351,17.9378608 L35.6914286,17.9378608 C34.907013,17.9378608 34.270974,18.5707685 34.270974,19.3506762 C34.270974,20.13123 34.907013,20.7634915 35.6914286,20.7634915 L41.9224351,20.7634915 C42.7068506,20.7634915 43.3422403,20.13123 43.3422403,19.3506762 C43.3422403,18.5701223 42.7068506,17.9378608 41.9224351,17.9378608" id="Fill-55" fill="#1B2327"></path>
                                <path d="M41.7848214,21.9409777 L35.5531656,21.9409777 C34.7693994,21.9409777 34.1333604,22.5732392 34.1333604,23.3537931 C34.1333604,24.1343469 34.7693994,24.7666085 35.5531656,24.7666085 L41.7848214,24.7666085 C42.5685877,24.7666085 43.2046266,24.1343469 43.2046266,23.3537931 C43.2046266,22.5732392 42.5685877,21.9409777 41.7848214,21.9409777" id="Fill-57" fill="#1B2327"></path>
                            </g>
                        </g>
                        <g id="baby" transform="translate(36.000000, 13.000000)">
                            <path d="M37.9145729,13.9954362 C37.9145729,21.7245404 31.6605829,27.9908362 23.9462111,27.9908362 C16.2314774,27.9908362 9.97748744,21.7245404 9.97748744,13.9954362 C9.97748744,6.26584875 16.2314774,3.625e-05 23.9462111,3.625e-05 C31.6605829,3.625e-05 37.9145729,6.26584875 37.9145729,13.9954362" id="Fill-1" fill="#FFD782"></path>
                            <g id="Group-5" transform="translate(8.924623, 23.905183)">
                                <mask id="mask-10" fill="white">
                                    <use xlink:href="#path-9"></use>
                                </mask>
                                <g id="Clip-4"></g>
                                <path d="M15.0216121,6.08461083 L0.0551396985,12.082415 L0.0551396985,26.077815 C0.0551396985,30.4943942 3.62896884,34.0750483 8.03700905,34.0750483 L22.0058533,34.0750483 C26.4142553,34.0750483 29.9877226,30.4943942 29.9877226,26.077815 L29.9877226,0.0869275 L15.0216121,6.08461083 Z" id="Fill-3" fill="#E3F4FC" mask="url(#mask-10)"></path>
                            </g>
                            <polygon id="Fill-6" fill="#87CEE9" points="8.97973869 23.9920867 8.97973869 35.9875742 23.9462111 29.98977"></polygon>
                            <polygon id="Fill-8" fill="#87CEE9" points="8.60285427 42.0574433 30.5568241 33.0663558 31.3125226 34.9175225 9.35794975 43.9087308"></polygon>
                            <mask id="mask-12" fill="white">
                                <use xlink:href="#path-11"></use>
                            </mask>
                            <g id="Clip-11"></g>
                            <polygon id="Fill-10" fill="#5A6470" mask="url(#mask-12)" points="15.9638593 11.9954875 19.9550955 11.9954875 19.9550955 9.99654167 15.9638593 9.99654167"></polygon>
                            <polygon id="Fill-12" fill="#5A6470" mask="url(#mask-12)" points="27.9369648 11.9954875 31.9283216 11.9954875 31.9283216 9.99654167 27.9369648 9.99654167"></polygon>
                            <polygon id="Fill-13" fill="#5A6470" mask="url(#mask-12)" points="23.9462352 22.0464283 20.6372503 20.941045 21.268004 19.0454117 23.9462352 19.9389742 26.6241045 19.0454117 27.2548583 20.941045"></polygon>
                            <polygon id="Fill-14" fill="#5A6470" mask="url(#mask-12)" points="18.0640643 6.55096708 20.0596824 2.55259208 21.8452101 3.44651708 19.849592 7.44537542"></polygon>
                            <polygon id="Fill-15" fill="#5A6470" mask="url(#mask-12)" points="22.0552764 6.55096708 24.0508945 2.55259208 25.8358191 3.44651708 23.840201 7.44537542"></polygon>
                            <polygon id="Fill-16" fill="#5A6470" mask="url(#mask-12)" points="26.046006 6.55096708 28.0415035 2.55259208 29.8266693 3.44651708 27.8309307 7.44537542"></polygon>
                            <polygon id="Fill-17" fill="#FCF05A" mask="url(#mask-12)" points="43.9008241 10.9963167 45.8964422 10.9963167 45.8964422 8.9968875 43.9008241 8.9968875"></polygon>
                            <polygon id="Fill-18" fill="#FCF05A" mask="url(#mask-12)" points="43.9008241 14.9946917 45.8964422 14.9946917 45.8964422 12.9957458 43.9008241 12.9957458"></polygon>
                            <polygon id="Fill-19" fill="#FCF05A" mask="url(#mask-12)" points="41.9056884 12.9957458 43.9008241 12.9957458 43.9008241 10.9963167 41.9056884 10.9963167"></polygon>
                            <polygon id="Fill-20" fill="#FCF05A" mask="url(#mask-12)" points="45.8964422 12.9957458 47.8921809 12.9957458 47.8921809 10.9963167 45.8964422 10.9963167"></polygon>
                            <polygon id="Fill-21" fill="#FCF05A" mask="url(#mask-12)" points="43.9008241 32.9884667 45.8964422 32.9884667 45.8964422 30.9890375 43.9008241 30.9890375"></polygon>
                            <polygon id="Fill-22" fill="#FCF05A" mask="url(#mask-12)" points="43.9008241 36.987325 45.8964422 36.987325 45.8964422 34.9883792 43.9008241 34.9883792"></polygon>
                            <polygon id="Fill-23" fill="#FCF05A" mask="url(#mask-12)" points="41.9056884 34.9883792 43.9008241 34.9883792 43.9008241 32.98895 41.9056884 32.98895"></polygon>
                            <polygon id="Fill-24" fill="#FCF05A" mask="url(#mask-12)" points="45.8964422 34.9883792 47.8921809 34.9883792 47.8921809 32.98895 45.8964422 32.98895"></polygon>
                            <polygon id="Fill-25" fill="#FCF05A" mask="url(#mask-12)" points="1.99561809 20.9929792 3.99123618 20.9929792 3.99123618 18.99355 1.99561809 18.99355"></polygon>
                            <polygon id="Fill-26" fill="#FCF05A" mask="url(#mask-12)" points="1.99561809 24.9912333 3.99123618 24.9912333 3.99123618 22.9918042 1.99561809 22.9918042"></polygon>
                            <polygon id="Fill-27" fill="#FCF05A" mask="url(#mask-12)" points="0 22.9918042 1.99561809 22.9918042 1.99561809 20.9928583 0 20.9928583"></polygon>
                            <polygon id="Fill-28" fill="#FCF05A" mask="url(#mask-12)" points="3.99111558 22.9918042 5.98625126 22.9918042 5.98625126 20.9928583 3.99111558 20.9928583"></polygon>
                            <polygon id="Fill-29" fill="#87CEE9" mask="url(#mask-12)" points="25.5263759 44.8928942 26.362999 43.077615 39.3344563 49.0757817 38.4978332 50.891665"></polygon>
                        </g>
                        <g id="ambulans" transform="translate(204.000000, 19.000000)">
                            <polygon id="Fill-1" fill="#E3F4FC" points="45.9321938 22.9897582 45.9321938 16.9958462 1.99658958 16.9958462 1.99658958 50.959011 55.9174979 50.959011 55.9174979 34.9766154"></polygon>
                            <polygon id="Fill-2" fill="#7D8D9C" points="0 50.9591319 5.99115833 50.9591319 5.99115833 46.9634725 0 46.9634725"></polygon>
                            <polygon id="Fill-3" fill="#7D8D9C" points="51.9229292 50.9591319 57.9145708 50.9591319 57.9145708 46.9634725 51.9229292 46.9634725"></polygon>
                            <g id="Group-26" transform="translate(0.000000, 0.075066)">
                                <path d="M19.9704996,49.8848429 C19.9704996,52.6433044 17.7350829,54.8790846 14.9776663,54.8790846 C12.2206121,54.8790846 9.98519542,52.6433044 9.98519542,49.8848429 C9.98519542,47.1263813 12.2206121,44.8906011 14.9776663,44.8906011 C17.7350829,44.8906011 19.9704996,47.1263813 19.9704996,49.8848429" id="Fill-4" fill="#7D8D9C"></path>
                                <path d="M14.97763,51.8826604 C13.8745425,51.8826604 12.9804967,50.9883967 12.9804967,49.8848912 C12.9804967,48.7818692 13.8745425,47.8874846 14.97763,47.8874846 C16.0802342,47.8874846 16.9746425,48.7818692 16.9746425,49.8848912 C16.9736758,50.9879132 16.0797508,51.8812099 14.97763,51.8826604" id="Fill-6" fill="#E3F4FC"></path>
                                <path d="M46.9304946,49.8848429 C46.9304946,52.6433044 44.6950779,54.8790846 41.9381446,54.8790846 C39.1806071,54.8790846 36.9451904,52.6433044 36.9451904,49.8848429 C36.9451904,47.1263813 39.1806071,44.8906011 41.9381446,44.8906011 C44.6950779,44.8906011 46.9304946,47.1263813 46.9304946,49.8848429" id="Fill-8" fill="#7D8D9C"></path>
                                <path d="M41.9380963,51.8826604 C40.8354921,51.8826604 39.9410838,50.9883967 39.9410838,49.8848912 C39.9410838,48.7818692 40.8354921,47.8874846 41.9380963,47.8874846 C43.0407004,47.8874846 43.9351088,48.7818692 43.9351088,49.8848912 C43.9337796,50.9879132 43.0402171,51.8812099 41.9380963,51.8826604" id="Fill-10" fill="#E3F4FC"></path>
                                <polygon id="Fill-12" fill="#238892" points="55.9174737 34.9015011 40.9398196 34.9015011 40.9398196 22.914644 45.9321696 22.914644"></polygon>
                                <path d="M42.936385,39.8957912 L40.9398558,39.8957912 C40.38801,39.8957912 39.9405642,39.4486593 39.9405642,38.8966044 C39.9405642,38.3451538 40.38801,37.898022 40.9398558,37.898022 L42.936385,37.898022 C43.48811,37.898022 43.9351933,38.3451538 43.9351933,38.8966044 C43.9351933,39.4486593 43.48811,39.8957912 42.936385,39.8957912" id="Fill-14" fill="#238892"></path>
                                <polygon id="Fill-16" fill="#E9686A" points="23.9641379 27.908922 18.9721504 27.908922 18.9721504 22.9146802 12.9805088 22.9146802 12.9805088 27.908922 7.98815875 27.908922 7.98815875 33.9023505 12.9805088 33.9023505 12.9805088 38.8970758 18.9721504 38.8970758 18.9721504 33.9023505 23.9641379 33.9023505"></polygon>
                                <mask id="mask-14" fill="white">
                                    <use xlink:href="#path-13"></use>
                                </mask>
                                <g id="Clip-19"></g>
                                <polygon id="Fill-18" fill="#7D8D9C" mask="url(#mask-14)" points="29.9557917 16.9207802 41.9381083 16.9207802 41.9381083 12.9256044 29.9557917 12.9256044"></polygon>
                                <path d="M35.9464546,4.93392308 C31.9527921,4.93392308 31.9527921,8.92946154 31.9527921,8.92946154 L31.9527921,12.9256044 L39.9406004,12.9256044 L39.9406004,8.92946154 C39.9406004,8.92946154 39.9406004,4.93392308 35.9464546,4.93392308" id="Fill-20" fill="#E9686A" mask="url(#mask-14)"></path>
                                <polygon id="Fill-21" fill="#FCF05A" mask="url(#mask-14)" points="20.5218621 1.83256374 21.4148204 0.0458494505 29.4031121 4.04150879 28.5095496 5.82822308"></polygon>
                                <polygon id="Fill-22" fill="#FCF05A" mask="url(#mask-14)" points="20.5218621 12.032211 28.5090663 8.03618901 29.4026288 9.82338681 21.4148204 13.8189253"></polygon>
                                <polygon id="Fill-23" fill="#FCF05A" mask="url(#mask-14)" points="42.4893983 9.82469231 43.3824775 8.03749451 51.3706483 12.0331538 50.4770858 13.8198681"></polygon>
                                <polygon id="Fill-24" fill="#FCF05A" mask="url(#mask-14)" points="42.488915 4.04096484 50.4766025 0.045789011 51.370165 1.8325033 43.3819942 5.82767912"></polygon>
                                <polygon id="Fill-25" fill="#40BBC1" mask="url(#mask-14)" points="29.9557917 34.9015495 40.9397833 34.9015495 40.9397833 22.9146923 29.9557917 22.9146923"></polygon>
                            </g>
                        </g>
                    </g>
                </g>
                <g id="Group-114" transform="translate(95.000000, 11.000000)">
                    <path d="M126,314.500508 C126,319.194363 103.837178,323 76.4990011,323 C49.1618235,323 27,319.194363 27,314.500508 C27,309.805637 49.1618235,306 76.4990011,306 C103.837178,306 126,309.805637 126,314.500508" id="Fill-1" fill-opacity="0.109431612" fill="#8B999F"></path>
                    <path d="M90.5400787,306 L94.441973,306 L95.3172386,309.5 C95.3172386,309.5 112,310.190041 112,313 L90,313 L90.5400787,306 Z" id="Fill-3" fill="#342A28"></path>
                    <path d="M60.4599213,306 L56.558027,306 L55.6827614,309.5 C55.6827614,309.5 39,310.190041 39,313 L61,313 L60.4599213,306 Z" id="Fill-5" fill="#342A28"></path>
                    <polygon id="Fill-7" fill="#FFFAEF" points="51.1221675 119 7 176.097992 15.9688308 180 60 140.350498"></polygon>
                    <polygon id="Fill-9" fill="#443937" points="101 207.218887 97.8956892 309 89.3684407 309 82 200"></polygon>
                    <polygon id="Fill-11" fill="#443937" points="58.8532643 207 54 309 61.6909107 309 76 207"></polygon>
                    <polygon id="Fill-13" fill="#FFFAEF" points="99.9156506 117 51.477532 118.905703 47 235 108 232.576736"></polygon>
                    <path d="M30.5141891,43.6947031 C30.5141891,43.6947031 16.3055491,107 74.9382545,107 C123.924004,107 108.793852,36.3263589 108.793852,36.3263589 C108.793852,36.3263589 58.2702542,-7.18347529 30.5141891,43.6947031" id="Fill-15" fill="#FFE1BD"></path>
                    <path d="M57.9916008,66.2274246 C58.1420594,68.7079313 56.2530829,70.8411464 53.7725774,70.991605 C51.2920719,71.1420637 49.1588577,69.2520557 49.0083992,66.7715491 C48.8579406,64.2910424 50.7469171,62.1588578 53.2274226,62.0083992 C55.7089587,61.8579405 57.8411423,63.746918 57.9916008,66.2274246" id="Fill-17" fill="#443937"></path>
                    <path d="M92.9916008,66.2274246 C93.1420612,68.7079313 91.2530614,70.8411464 88.7714947,70.991605 C86.2909587,71.1420637 84.1587488,69.2520557 84.0082883,66.7715491 C83.8588585,64.2910424 85.7478583,62.1588578 88.2273639,62.0083992 C90.7078999,61.8579405 92.8411404,63.746918 92.9916008,66.2274246" id="Fill-19" fill="#443937"></path>
                    <path d="M58.9823207,80.925714 C59.2994655,86.1623892 55.311777,90.665198 50.0748228,90.9823258 C44.8378686,91.2994537 40.3348199,87.3109612 40.0176752,82.074286 C39.7005304,76.8376108 43.6892354,72.3358185 48.9251731,72.0176742 C54.1621273,71.7005463 58.665176,75.6890388 58.9823207,80.925714" id="Fill-21" fill="#F8C19A"></path>
                    <path d="M102.982321,80.925714 C103.299464,86.1623892 99.3117983,90.665198 94.0738579,90.9823258 C88.8369339,91.2994537 84.3349277,87.3109612 84.0177848,82.074286 C83.6996254,76.8376108 87.6883074,72.3358185 92.9252313,72.0176742 C98.1621553,71.7005463 102.665178,75.6890388 102.982321,80.925714" id="Fill-23" fill="#F8C19A"></path>
                    <path d="M38,72.2218778 C38,72.2218778 30.8532341,61.4581843 23.9745228,63.1882581 C17.0958116,64.9173416 19.6030911,81.0079196 27.9820932,80.9999971 C36.3621145,80.9910843 38,72.2218778 38,72.2218778" id="Fill-25" fill="#FFE1BD"></path>
                    <path d="M102,71.5004302 C102,71.5004302 107.525958,60.1542375 114.287625,61.0504258 C121.048313,61.945639 120.578685,77.9639081 112.59305,78.923483 C104.607415,79.8830578 102,71.5004302 102,71.5004302" id="Fill-27" fill="#FFE1BD"></path>
                    <path d="M39,15 C39,15 33.1716925,57.5433767 34.6407783,77 C34.6407783,77 12.5564566,24.8950317 39,15" id="Fill-29" fill="#443937"></path>
                    <path d="M104,20 C104,20 109.105692,58.3315863 107.60624,78 C107.60624,78 130.972794,30.0032519 104,20" id="Fill-31" fill="#443937"></path>
                    <polygon id="Fill-33" fill="#FFFAEF" points="99.5602649 117 120.68245 174.097512 159 173.125373 159 184.237811 116.02351 186 96 140.233831"></polygon>
                    <polygon id="Fill-35" fill="#008EA7" points="91 117 78.2205928 164 56 118.530836"></polygon>
                    <path d="M68,101.481068 L68.7628438,123.909729 L76.8469123,130 L80,123.909729 L79.0939284,96.3006999 C79.0939284,96.3006999 73.5599377,91.1053829 68,101.481068" id="Fill-37" fill="#FFE1BD"></path>
                    <polygon id="Fill-39" fill="#3BC0CB" points="78.8071095 118 76 130 88 122.552073"></polygon>
                    <polygon id="Fill-41" fill="#3BC0CB" points="67.931061 118 76 130 59 125.530692"></polygon>
                    <polygon id="Fill-43" fill="#443937" points="73.6894791 129.183165 79.5944842 128 78.5628192 134.359513 83 148.557496 78.8529111 163 71 147.789425 74.6690501 133.613133"></polygon>
                    <g id="Group-47" transform="translate(158.000000, 166.000000)">
                        <mask id="mask-16" fill="white">
                            <use xlink:href="#path-15"></use>
                        </mask>
                        <g id="Clip-46"></g>
                        <polygon id="Fill-45" fill="#FFE1BD" mask="url(#mask-16)" points="5.2879 7.4882 16.7419 0.3342 19.5749 2.4542 9.5439 9.9492 28.5709 9.6672 29.4279 14.5492 13.3539 19.9162 2.8289 16.4922 0.7069 13.6062"></polygon>
                    </g>
                    <path d="M34.0212316,63.0906151 C34.0212316,63.0906151 27.0024442,102.565117 68.5858828,105.672469 C112.940817,108.986509 107.355803,59.2387834 107.355803,59.2387834 L112.992845,63.339444 C112.992845,63.339444 114.674753,112.556402 66.4647383,108.794871 C22.0307615,105.328323 27.1825414,53 27.1825414,53 L34.0212316,63.0906151 Z" id="Fill-48" fill="#443937"></path>
                    <polygon id="Fill-50" fill="#F05757" points="71.8085997 63 78 80 68 80"></polygon>
                    <path d="M72.4232278,67.0951222 C72.4232278,67.0951222 75.8954226,76.5638485 74.7786417,76.9886307 C73.6642269,77.4124087 70.9621851,65.8408599 72.4232278,67.0951222" id="Fill-52" fill="#FDFADB"></path>
                    <path d="M67,92 L76,92 C76,92 71.7215945,98.75 67,92" id="Fill-54" fill="#F8C19A"></path>
                    <path d="M65,82 L80,82 C80,82 77.9600476,87.9118152 72.0683953,87.9990707 C66.176743,88.0863262 65,82 65,82" id="Fill-56" fill="#FDFADB"></path>
                    <path d="M61.977493,73.0783277 L43.445555,73.0783277 L42.6654017,59.4884938 L61.977493,59.4884938 L61.977493,73.0783277 Z M39,57 L40.0905914,76 L66,76 L66,57 L39,57 Z" id="Fill-58" fill="#443937"></path>
                    <path d="M99.9773419,73.0783277 L81.4447075,73.0783277 L80.6645249,59.4884938 L99.9773419,59.4884938 L99.9773419,73.0783277 Z M77,57 L78.0906324,76 L104,76 L104,57 L77,57 Z" id="Fill-60" fill="#443937"></path>
                    <polygon id="Fill-62" fill="#443937" points="26 60 40.3320455 64.4313881 41 68 26 63.9994707"></polygon>
                    <polygon id="Fill-64" fill="#443937" points="117 60 102.668926 64.4313881 102 68 117 63.9994707"></polygon>
                    <path d="M64.701337,66 C64.701337,66 71.0005022,58.7809676 76.8979348,66 L79,62.9939237 C79,62.9939237 70.4159814,55.6673659 63,63.9366248 L64.701337,66 Z" id="Fill-66" fill="#443937"></path>
                    <path d="M102,41.5557267 C102,41.5557267 52.8723695,25.5341349 35,48 L35.8976943,39.1769881 C35.8976943,39.1769881 60.3598648,21.543833 102,41.5557267" id="Fill-68" fill="#F8C19A"></path>
                    <path d="M35.3974138,39.6006897 C35.3974138,39.6006897 28.9091949,-2.43424294 68.3647972,1.22586507 C107.820399,4.88597307 117.314692,31.3423197 111.378876,40.1145126 C105.444064,48.8857 66.0195973,23.28606 35.3974138,39.6006897" id="Fill-70" fill="#443937"></path>
                    <polygon id="Fill-72" fill="#F5EFDB" points="54.2848031 123 51 143.122261 60.1759187 146.053268 58.8574544 167 75 164.285329 62.2143533 165.098833 62.3753343 144.13615 52.224641 141.712586"></polygon>
                    <g id="Group-76" transform="translate(55.000000, 0.000000)">
                        <mask id="mask-18" fill="white">
                            <use xlink:href="#path-17"></use>
                        </mask>
                        <g id="Clip-75"></g>
                        <path d="M6.1507,0.8149 C6.1507,0.8149 -7.4573,1.8059 6.9967,18.5109 C19.2907,32.7219 47.7147,27.7939 50.7797,22.8979 C56.3417,14.0159 25.9467,-0.6841 6.1507,0.8149" id="Fill-74" fill="#544744" mask="url(#mask-18)"></path>
                    </g>
                    <path d="M61,51.0825946 C61,51.0825946 49.0791103,37.8976268 41,54 C41,54 48.8305068,48.361623 61,51.0825946" id="Fill-77" fill="#443937"></path>
                    <path d="M80,51.0825946 C80,51.0825946 91.9208897,37.8976268 100,54 C100,54 92.1704997,48.361623 80,51.0825946" id="Fill-79" fill="#443937"></path>
                    <path d="M44.512664,80 C44.3815016,80 44.2503392,79.9502488 44.1499322,79.8498417 C43.9500226,79.6499322 43.9500226,79.3251922 44.1499322,79.1252827 L46.1246043,77.1506106 C46.3254184,76.9497965 46.6492537,76.9497965 46.8500678,77.1506106 C47.0499774,77.3505201 47.0499774,77.6752601 46.8500678,77.8751696 L44.8753957,79.8498417 C44.7749887,79.9502488 44.6438263,80 44.512664,80" id="Fill-81" fill="#E59D87"></path>
                    <path d="M50.5127026,80 C50.3815303,80 50.2503581,79.9502488 50.1499435,79.8498417 C49.9500188,79.6499322 49.9500188,79.3251922 50.1499435,79.1252827 L52.1247644,77.1506106 C52.324689,76.9497965 52.6494534,76.9497965 52.8493781,77.1506106 C53.0502073,77.3505201 53.0502073,77.6752601 52.8493781,77.8751696 L50.8745571,79.8498417 C50.7750471,79.9502488 50.6438749,80 50.5127026,80" id="Fill-83" fill="#E59D87"></path>
                    <path d="M47.5124764,80 C47.3813042,80 47.2501319,79.9502488 47.1506219,79.8498417 C46.9497927,79.6499322 46.9497927,79.3251922 47.1506219,79.1252827 L49.1254429,77.1506106 C49.3253675,76.9497965 49.6501319,76.9497965 49.8500565,77.1506106 C50.0499812,77.3505201 50.0499812,77.6752601 49.8500565,77.8751696 L47.8752356,79.8498417 C47.774821,79.9502488 47.6436487,80 47.5124764,80" id="Fill-85" fill="#E59D87"></path>
                    <path d="M88.5127026,80 C88.3806257,80 88.2503581,79.9502488 88.1499435,79.8498417 C87.9500188,79.6499322 87.9500188,79.3251922 88.1499435,79.1252827 L90.1247644,77.1506106 C90.324689,76.9497965 90.6494534,76.9497965 90.8493781,77.1506106 C91.0502073,77.3505201 91.0502073,77.6752601 90.8493781,77.8751696 L88.8745571,79.8498417 C88.7750471,79.9502488 88.6438749,80 88.5127026,80" id="Fill-87" fill="#E59D87"></path>
                    <path d="M95.513265,80 C95.381218,80 95.2509798,79.9502488 95.1505879,79.8498417 C94.949804,79.6499322 94.949804,79.3251922 95.1505879,79.1252827 L97.1249623,77.1506106 C97.3248417,76.9497965 97.6495327,76.9497965 97.8494121,77.1506106 C98.050196,77.3505201 98.050196,77.6752601 97.8494121,77.8751696 L95.8750377,79.8498417 C95.7755502,79.9502488 95.6444076,80 95.513265,80" id="Fill-89" fill="#E59D87"></path>
                    <path d="M91.5123606,80 C91.381218,80 91.2500754,79.9502488 91.1505879,79.8498417 C90.949804,79.6499322 90.949804,79.3251922 91.1505879,79.1252827 L93.1249623,77.1506106 C93.3248417,76.9497965 93.6495327,76.9497965 93.8494121,77.1506106 C94.050196,77.3505201 94.050196,77.6752601 93.8494121,77.8751696 L91.8750377,79.8498417 C91.7746458,79.9502488 91.6444076,80 91.5123606,80" id="Fill-91" fill="#E59D87"></path>
                    <polygon id="Fill-93" fill="#342A28" points="16 166.521874 50.3484842 143 82 187.645839 47.7187144 211"></polygon>
                    <polygon id="Fill-95" fill="#FFFAEF" points="19 165.722543 49.6959682 146 80 185.632589 49.6959682 207"></polygon>
                    <polygon id="Fill-97" fill="#FFE1BD" points="54.6256616 187.306337 66.1913301 180 69.0519499 182.166165 58.9231546 189.819742 78.1356546 189.531737 79 194.518715 62.7702994 200 52.142688 196.503089 50 193.555635"></polygon>
                    <path d="M28,157.900236 L31.0685905,162 L42,154.387333 L39.1729988,150.67812 L36.2739269,152.055385 C36.2739269,152.055385 31.6482019,148.568312 30.4930394,150.67812 C29.6951856,152.134942 30.4575116,155.707771 30.4575116,155.707771 L28,157.900236 Z" id="Fill-99" fill="#698793"></path>
                    <polygon id="Fill-101" fill="#EE4623" points="47 159.176983 49.8301515 161 52 152.039652 50.665617 152 49.0291281 159.236944 47.4339697 157.977756"></polygon>
                    <polygon id="Fill-103" fill="#EE4623" points="53 168.176983 55.8301515 170 58 161.039652 56.665617 161 55.0291281 168.236944 53.4339697 166.977756"></polygon>
                    <polygon id="Fill-105" fill="#EE4623" points="59 176.176983 61.8301515 178 64 169.039652 62.6646329 169 61.0291281 176.236944 59.4339697 174.977756"></polygon>
                    <polygon id="Fill-107" fill="#EE4623" points="67 184.176983 69.8301515 186 72 177.039652 70.665617 177 69.0291281 184.236944 67.4339697 182.978723"></polygon>
                    <g id="Group-111" transform="translate(0.000000, 173.000000)">
                        <mask id="mask-20" fill="white">
                            <use xlink:href="#path-19"></use>
                        </mask>
                        <g id="Clip-110"></g>
                        <polygon id="Fill-109" fill="#FFFAEF" mask="url(#mask-20)" points="9.5345 0.3671 52.9995 14.3401 50.4495 22.3711 -0.0005 12.9161"></polygon>
                    </g>
                    <polygon id="Fill-112" fill="#F5EFDB" points="93.7535326 122 100 141.335032 91.2152473 145.565439 95.6081249 166 79 165.690385 91.9590892 164.618643 88.7250812 144.000496 98.5644453 140.127337"></polygon>
                </g>
            </g>
        </g>
    </g>
</svg>